<svg xmlns="http://www.w3.org/2000/svg" xmlns:xlink="http://www.w3.org/1999/xlink" width="451.776" height="402.982" viewBox="0 0 451.776 402.982">
  <defs>
    <linearGradient id="linear-gradient" x1="0.578" y1="2.192" x2="1.48" y2="2.192" gradientUnits="objectBoundingBox">
      <stop offset="0" stop-color="#7ab6eb"/>
      <stop offset="0.172" stop-color="#71b0e7"/>
      <stop offset="0.44" stop-color="#5ba0de"/>
      <stop offset="0.694" stop-color="#418ed4"/>
    </linearGradient>
  </defs>
  <g id="Group_9211" data-name="Group 9211" transform="translate(-655.388 -160.068)">
    <g id="image" transform="translate(655.388 160.068)">
      <path id="Path_28514" data-name="Path 28514" d="M1392.29,503.31l-85.384-49.3,4.569-208.7,80.815,45.637Z" transform="translate(-958.414 -199.717)" fill="#a8c4e5" opacity="0.4"/>
      <g id="Group_9106" data-name="Group 9106" transform="translate(88.474 135.127)">
        <path id="Path_28515" data-name="Path 28515" d="M862.627,419.1s-6.6-3.392-8.437-2.446S861.575,422.913,862.627,419.1Z" transform="translate(-836.214 -414.459)" fill="#ffc2b0"/>
        <path id="Path_28516" data-name="Path 28516" d="M850.732,416.411s-6.523-1.811-13.889,3.722C836.843,420.132,851.222,418.857,850.732,416.411Z" transform="translate(-828.258 -414.29)" fill="#ffc2b0"/>
        <path id="Path_28517" data-name="Path 28517" d="M844.824,412.974s-10,.608-18.483,4.838c0,0,5.095,2.867,6.644,2.679C837.109,419.99,845.18,414.751,844.824,412.974Z" transform="translate(-823.373 -412.823)" fill="#ffc2b0"/>
        <path id="Path_28518" data-name="Path 28518" d="M868.739,418.708s-6.842-2.881-8.6-1.8S867.98,422.581,868.739,418.708Z" transform="translate(-838.992 -414.54)" fill="#ffc2b0"/>
        <path id="Path_28519" data-name="Path 28519" d="M864.743,414.736s-6.843-2.881-8.6-1.8S863.985,418.609,864.743,414.736Z" transform="translate(-837.134 -412.693)" fill="#ffc2b0"/>
        <path id="Path_28520" data-name="Path 28520" d="M827.2,420.757l11.18-1.951s14.219,2.093,14.434,4.605c.281,3.28-8.312-.273-8.312-.273s-8.258.754-8.328,1c-.029.1-.762.43-.708.993.091.946.529.965,1.5,1.046l3.426-.189s4.675-.4,4.269,1.411c-.364,1.63-4.289,1.052-4.289,1.052l-7.152,1.21-4.782-.968c-2.222-.45-7.629-.339-7.646-2.606l3.8-2.207A3.142,3.142,0,0,1,827.2,420.757Z" transform="translate(-820.793 -415.536)" fill="#ffc2b0"/>
      </g>
      <g id="Group_9108" data-name="Group 9108" transform="translate(100.896 136.735)">
        <path id="Path_28521" data-name="Path 28521" d="M867.492,417.482l-19.616-.42a1.21,1.21,0,0,0-1.129,1.055L845,429.695a.887.887,0,0,0,.8,1.1l19.616.42a1.21,1.21,0,0,0,1.129-1.055l1.749-11.578A.887.887,0,0,0,867.492,417.482Z" transform="translate(-844.466 -416.333)" fill="#1d60dc"/>
        <g id="Group_9107" data-name="Group 9107">
          <path id="Path_28522" data-name="Path 28522" d="M864.45,429.849l-19.616-.42a.887.887,0,0,1-.8-1.1l1.75-11.578a1.21,1.21,0,0,1,1.129-1.055l19.616.42a.887.887,0,0,1,.8,1.1l-1.75,11.578A1.209,1.209,0,0,1,864.45,429.849Z" transform="translate(-844.017 -415.699)" fill="#fff"/>
          <path id="Path_28523" data-name="Path 28523" d="M851.684,432.575l-2.9-.063a.424.424,0,0,1-.384-.524h0a.579.579,0,0,1,.54-.5l2.9.063a.424.424,0,0,1,.385.524h0A.579.579,0,0,1,851.684,432.575Z" transform="translate(-846.051 -423.04)" fill="#1d60dc"/>
          <path id="Path_28524" data-name="Path 28524" d="M860.859,432.771l-2.9-.062a.424.424,0,0,1-.385-.525h0a.578.578,0,0,1,.54-.5l2.9.062a.424.424,0,0,1,.384.525h0A.578.578,0,0,1,860.859,432.771Z" transform="translate(-850.318 -423.132)" fill="#1d60dc"/>
          <path id="Path_28525" data-name="Path 28525" d="M870.035,432.968l-2.9-.062a.424.424,0,0,1-.385-.525h0a.578.578,0,0,1,.54-.5l2.9.062a.424.424,0,0,1,.384.525h0A.578.578,0,0,1,870.035,432.968Z" transform="translate(-854.586 -423.223)" fill="#1d60dc"/>
          <path id="Path_28526" data-name="Path 28526" d="M871.228,436.646l-3.485-.074a.28.28,0,0,1-.254-.347h0a.382.382,0,0,1,.357-.334l3.485.074a.281.281,0,0,1,.254.347h0A.382.382,0,0,1,871.228,436.646Z" transform="translate(-854.931 -425.09)" fill="#1d60dc"/>
          <path id="Path_28527" data-name="Path 28527" d="M853.95,419.995l-3.336-.071a.35.35,0,0,1-.316-.432h0a.476.476,0,0,1,.444-.415l3.336.072a.349.349,0,0,1,.316.431h0A.475.475,0,0,1,853.95,419.995Z" transform="translate(-846.935 -417.27)" fill="#1d60dc"/>
          <path id="Path_28528" data-name="Path 28528" d="M852.532,427.122l-2.869-.061a.563.563,0,0,1-.51-.7l.08-.533a.769.769,0,0,1,.717-.671l2.869.061a.564.564,0,0,1,.51.7l-.081.533A.769.769,0,0,1,852.532,427.122Z" transform="translate(-846.402 -420.099)" fill="#add5f7"/>
          <path id="Path_28529" data-name="Path 28529" d="M856.524,438.411l-8.739-.187a.281.281,0,0,1-.254-.347h0a.383.383,0,0,1,.357-.334l8.739.188a.28.28,0,0,1,.254.347h0A.382.382,0,0,1,856.524,438.411Z" transform="translate(-845.649 -425.859)" fill="#1d60dc"/>
          <path id="Path_28530" data-name="Path 28530" d="M879.211,433.165l-2.9-.062a.424.424,0,0,1-.384-.525h0a.579.579,0,0,1,.54-.5l2.9.063a.424.424,0,0,1,.384.524h0A.579.579,0,0,1,879.211,433.165Z" transform="translate(-858.854 -423.314)" fill="#1d60dc"/>
          <path id="Path_28531" data-name="Path 28531" d="M882.5,419.74a1.606,1.606,0,0,1-1.6,1.307,1.176,1.176,0,0,1-1.193-1.367,1.6,1.6,0,0,1,1.6-1.307A1.177,1.177,0,0,1,882.5,419.74Z" transform="translate(-860.609 -416.942)" fill="#1d60dc"/>
        </g>
      </g>
      <g id="Group_9109" data-name="Group 9109" transform="translate(330.759 44.172)">
        <path id="Path_28532" data-name="Path 28532" d="M1283.391,299.345l-9.638-5.564,22.72-24.642,10.81,5.824Z" transform="translate(-1273.753 -254.97)" fill="#fff"/>
        <path id="Path_28533" data-name="Path 28533" d="M1301.408,310.066l-9.637-5.564,22.383-24.276,10.81,5.824Z" transform="translate(-1282.133 -260.127)" fill="#ff5c97"/>
        <path id="Path_28534" data-name="Path 28534" d="M1319.426,320.787l-9.637-5.564,22.045-23.91,10.81,5.824Z" transform="translate(-1290.513 -265.283)" fill="#fff"/>
        <path id="Path_28535" data-name="Path 28535" d="M1337.444,330.973l-9.637-5.564,22.274-24.158,11.192,5.474Z" transform="translate(-1298.894 -269.906)" fill="#ff5c97"/>
        <path id="Path_28536" data-name="Path 28536" d="M1355.516,340.143l-9.692-5.6,23.614-25.611,10.149,7.363Z" transform="translate(-1307.274 -273.48)" fill="#fff"/>
        <path id="Path_28537" data-name="Path 28537" d="M1373.583,351.706l-9.64-5.565,22.938-24.31,11.4,4.68Z" transform="translate(-1315.701 -279.478)" fill="#ff5c97"/>
        <path id="Path_28538" data-name="Path 28538" d="M1391.78,361.443l-9.816-5.667,23.744-25.195,10.917,6.2Z" transform="translate(-1324.083 -283.547)" fill="#fff"/>
        <path id="Path_28539" data-name="Path 28539" d="M1394.208,301.662l-78.761-43.537v-14.05l2.029-1.425,77.04,44.642Z" transform="translate(-1293.146 -242.65)" fill="#e05185"/>
        <path id="Path_28540" data-name="Path 28540" d="M1278.919,329.8l-.67-.387c-2.483-1.433-4.5-5.279-4.5-8.589v-5.635l9.661,5.578V326.4C1283.415,329.714,1281.4,331.236,1278.919,329.8Z" transform="translate(-1273.753 -276.39)" fill="#dbefff"/>
        <path id="Path_28541" data-name="Path 28541" d="M1314.955,350.624l-.671-.387c-2.482-1.434-4.5-5.279-4.5-8.589v-5.634l9.661,5.578v5.634C1319.45,350.535,1317.437,352.057,1314.955,350.624Z" transform="translate(-1290.514 -286.074)" fill="#dbefff"/>
        <path id="Path_28542" data-name="Path 28542" d="M1351.043,371.429l-.671-.387c-2.482-1.434-4.5-5.279-4.5-8.589v-5.634l9.661,5.578v5.634C1355.538,371.34,1353.525,372.862,1351.043,371.429Z" transform="translate(-1307.298 -295.75)" fill="#dbefff"/>
        <path id="Path_28543" data-name="Path 28543" d="M1387.131,392.028l-.671-.387c-2.482-1.434-4.5-5.279-4.5-8.589v-5.634l9.661,5.578v5.634C1391.626,391.939,1389.613,393.461,1387.131,392.028Z" transform="translate(-1324.083 -305.331)" fill="#dbefff"/>
        <path id="Path_28544" data-name="Path 28544" d="M1296.758,340.008l-.671-.387c-2.482-1.433-4.5-5.279-4.5-8.589V325.4l9.661,5.578v5.635C1301.253,339.919,1299.241,341.441,1296.758,340.008Z" transform="translate(-1282.05 -281.136)" fill="#e05185"/>
        <path id="Path_28545" data-name="Path 28545" d="M1333.017,361.026l-.671-.387c-2.482-1.434-4.5-5.279-4.5-8.589v-5.635l9.661,5.578v5.635C1337.512,360.937,1335.5,362.459,1333.017,361.026Z" transform="translate(-1298.914 -290.912)" fill="#e05185"/>
        <path id="Path_28546" data-name="Path 28546" d="M1369.313,381.89l-.671-.387c-2.483-1.434-4.5-5.279-4.5-8.589v-5.634l9.662,5.578v5.634C1373.809,381.8,1371.8,383.323,1369.313,381.89Z" transform="translate(-1315.796 -300.616)" fill="#e05185"/>
        <path id="Path_28547" data-name="Path 28547" d="M1436.574,349.529l-10.7-5.813-22.213,23.7.121.07v5.6c0,3.31,2.013,7.156,4.5,8.589l0,.892c2.919.694,5.163-.593,5.163-3.9v-4.946Z" transform="translate(-1334.175 -289.656)" fill="#d63670"/>
        <path id="Path_28548" data-name="Path 28548" d="M1409.67,372.1l-9.793-5.654,22.885-24.821,10.714,6.073Z" transform="translate(-1332.414 -288.682)" fill="#ff5c97"/>
        <path id="Path_28549" data-name="Path 28549" d="M1405.27,402.7l-.671-.387c-2.483-1.434-4.5-5.279-4.5-8.589V388.09l9.661,5.578V399.3C1409.765,402.612,1407.752,404.134,1405.27,402.7Z" transform="translate(-1332.519 -310.295)" fill="#e05185"/>
        <path id="Path_28550" data-name="Path 28550" d="M1393.282,289.023l-77.832-44.936,2.083-1.412,78.013,45.041Z" transform="translate(-1293.147 -242.661)" fill="#ff5c97"/>
        <path id="Path_28551" data-name="Path 28551" d="M1463.224,341.7l-2.024-.155-.24-13.355,2.264-1.307Z" transform="translate(-1360.824 -281.826)" fill="#d63670"/>
      </g>
      <g id="Group_9110" data-name="Group 9110" transform="translate(172.542)">
        <path id="Path_28552" data-name="Path 28552" d="M1004.161,194.352l27.064,15.53c10.649,6.111,22.84-2.385,21.944-15.293l-.089-1.281a17.883,17.883,0,0,0-8.659-14.263l-29.659-17.019c-10.307-5.914-22.108,2.309-21.241,14.8h0A21.973,21.973,0,0,0,1004.161,194.352Z" transform="translate(-985.178 -160.068)" fill="#2c4482"/>
        <path id="Path_28553" data-name="Path 28553" d="M988.645,200.09l27.065,15.53c10.649,6.111,22.84-2.386,21.945-15.293l-.089-1.282a17.881,17.881,0,0,0-8.659-14.263l-29.659-17.019c-10.307-5.915-22.108,2.309-21.241,14.8h0A21.972,21.972,0,0,0,988.645,200.09Z" transform="translate(-977.962 -162.737)" fill="#1d60dc"/>
        <path id="Path_28554" data-name="Path 28554" d="M1041.872,215.964l27.064,15.53c10.649,6.111,22.84-2.385,21.945-15.292l-.089-1.282a17.884,17.884,0,0,0-8.658-14.263l-29.659-17.019c-10.307-5.914-22.108,2.309-21.241,14.8h0A21.973,21.973,0,0,0,1041.872,215.964Z" transform="translate(-1002.718 -170.12)" fill="#2c4482"/>
        <path id="Path_28555" data-name="Path 28555" d="M1121.316,260.457l.053,20.14a2,2,0,0,1-3.251,1.559l-17.583-14.2Z" transform="translate(-1034.971 -206.76)" fill="#2c4482"/>
        <path id="Path_28556" data-name="Path 28556" d="M1026.322,219.143l27.065,15.53c10.649,6.111,22.841-2.386,21.945-15.293l-.089-1.282a17.884,17.884,0,0,0-8.659-14.263l-35.443-20.324c-10.307-5.914-16.324,5.614-15.457,18.107h0A21.972,21.972,0,0,0,1026.322,219.143Z" transform="translate(-995.468 -170.23)" fill="#1d60dc"/>
        <path id="Path_28557" data-name="Path 28557" d="M1097.036,241.307l-.853,1.49a.528.528,0,0,1-.716.183l-1.906-.783c-.78-.32-1.092.6-.527,1.557l1.379,2.339a1.782,1.782,0,0,1,.273,1.124l-.325,1.99c-.133.815.682,1.965,1.379,1.947l1.705-.044a1.24,1.24,0,0,1,.885.511l1.7,2.013c.7.824,1.513.615,1.38-.354l-.326-2.366a.752.752,0,0,1,.274-.808l1.379-.747c.565-.305.253-1.585-.527-2.166l-1.906-1.418a2.186,2.186,0,0,1-.716-1.01l-.852-2.474C1098.393,241.279,1097.385,240.7,1097.036,241.307Z" transform="translate(-1031.349 -197.737)" fill="#fff"/>
        <path id="Path_28558" data-name="Path 28558" d="M1071.321,227.127l-.853,1.49a.528.528,0,0,1-.716.183l-1.906-.783c-.781-.32-1.092.6-.528,1.558l1.38,2.339a1.779,1.779,0,0,1,.273,1.124l-.325,1.99c-.133.815.682,1.965,1.38,1.948l1.7-.044a1.242,1.242,0,0,1,.885.511l1.7,2.013c.7.824,1.513.615,1.38-.354l-.326-2.366a.754.754,0,0,1,.274-.808l1.379-.746c.565-.305.253-1.585-.527-2.166L1074.6,231.6a2.184,2.184,0,0,1-.716-1.01l-.852-2.474C1072.678,227.1,1071.67,226.517,1071.321,227.127Z" transform="translate(-1019.389 -191.142)" fill="#fff"/>
        <path id="Path_28559" data-name="Path 28559" d="M1045.606,212.947l-.853,1.49a.528.528,0,0,1-.716.183l-1.906-.783c-.78-.32-1.092.6-.527,1.557l1.379,2.339a1.786,1.786,0,0,1,.274,1.124l-.326,1.991c-.133.814.682,1.965,1.38,1.947l1.7-.044a1.241,1.241,0,0,1,.885.511l1.7,2.013c.7.824,1.513.615,1.38-.354l-.326-2.367a.752.752,0,0,1,.274-.808l1.379-.747c.565-.305.253-1.585-.527-2.166l-1.906-1.419a2.183,2.183,0,0,1-.716-1.01l-.853-2.474C1046.964,212.92,1045.955,212.338,1045.606,212.947Z" transform="translate(-1007.428 -184.547)" fill="#fff"/>
        <path id="Path_28560" data-name="Path 28560" d="M1019.892,198.768l-.853,1.49a.527.527,0,0,1-.716.183l-1.906-.783c-.78-.32-1.092.6-.527,1.557l1.379,2.34a1.781,1.781,0,0,1,.274,1.124l-.326,1.99c-.133.815.682,1.965,1.38,1.947l1.7-.044a1.24,1.24,0,0,1,.885.511l1.7,2.013c.7.824,1.513.615,1.38-.354l-.326-2.366a.754.754,0,0,1,.274-.808l1.38-.746c.564-.306.252-1.585-.527-2.166l-1.906-1.419a2.185,2.185,0,0,1-.716-1.01l-.853-2.474C1021.249,198.74,1020.241,198.158,1019.892,198.768Z" transform="translate(-995.468 -177.952)" fill="#fff"/>
        <path id="Path_28561" data-name="Path 28561" d="M995.35,185.168l-.853,1.49a.528.528,0,0,1-.716.183l-1.906-.783c-.78-.32-1.092.6-.527,1.557l1.379,2.339a1.783,1.783,0,0,1,.274,1.124l-.326,1.99c-.133.815.682,1.965,1.38,1.947l1.7-.044a1.239,1.239,0,0,1,.885.511l1.7,2.013c.7.824,1.513.615,1.38-.354l-.326-2.366a.753.753,0,0,1,.274-.808l1.379-.747c.565-.305.253-1.585-.527-2.166l-1.906-1.418a2.184,2.184,0,0,1-.716-1.01l-.853-2.474C996.708,185.14,995.7,184.558,995.35,185.168Z" transform="translate(-984.054 -171.627)" fill="#fff"/>
      </g>
      <rect id="Rectangle_5262" data-name="Rectangle 5262" width="17.237" height="22.716" transform="translate(132.332 145.137)" fill="#a8c4e5"/>
      <path id="Path_28562" data-name="Path 28562" d="M1198.16,766.272l-146.868-84.794,116.839-67.457,123.17,71.112,0,27.364Z" transform="translate(-839.526 -371.205)" fill="#92b1d6" opacity="0.4"/>
      <path id="Path_28563" data-name="Path 28563" d="M1115.043,382.838s-8.02,1.5-10.133,7.131l8.782,1.974Z" transform="translate(-864.464 -263.68)" fill="#a8c4e5"/>
      <g id="Group_9112" data-name="Group 9112" transform="translate(252.287 91.713)">
        <g id="Group_9111" data-name="Group 9111">
          <path id="Path_28564" data-name="Path 28564" d="M1141.7,385.358c5.823-7.85,6.135-10.453,9.483-17.941,3.77-8.433,5.477-20.7,7.3-29.485.717-3.451-2.569-6.4-6.052-6.4a7.872,7.872,0,0,0-7.619,6.4c-3.248,15.647-11.622,29.777-17.316,44.893-1.266,3.361.189,7.393,3.811,7.876C1137.348,391.506,1141.7,385.358,1141.7,385.358Z" transform="translate(-1127.047 -331.529)" fill="#99b8db"/>
        </g>
      </g>
      <g id="Group_9113" data-name="Group 9113" transform="translate(239.745 113.714)">
        <path id="Path_28565" data-name="Path 28565" d="M1118.874,405.121a91.961,91.961,0,0,1-8.946-14.817c-1.908-4.2-3.666-8.41-5.878-12.466-2.121-3.89,3.82-7.368,5.943-3.474,2.212,4.056,3.969,8.269,5.878,12.467a91.927,91.927,0,0,0,8.946,14.817c2.561,3.624-3.4,7.067-5.943,3.474Z" transform="translate(-1103.599 -372.66)" fill="#ffc2b0"/>
      </g>
      <g id="Group_9114" data-name="Group 9114" transform="translate(225.863 101.184)">
        <path id="Path_28566" data-name="Path 28566" d="M1082.188,360.391s2.033,6.394,3.81,6.968S1085.3,358.636,1082.188,360.391Z" transform="translate(-1079.759 -354.321)" fill="#ffc2b0"/>
        <path id="Path_28567" data-name="Path 28567" d="M1083.857,368.073s3,5.336,11.238,6.533C1095.1,374.606,1085.114,366.2,1083.857,368.073Z" transform="translate(-1080.535 -357.87)" fill="#ffc2b0"/>
        <path id="Path_28568" data-name="Path 28568" d="M1082.715,371.48a15.916,15.916,0,0,0,12.46,6.937s1.013-3.263-.1-4.137C1092.13,371.955,1083.628,370.119,1082.715,371.48Z" transform="translate(-1080.004 -359.365)" fill="#ffc2b0"/>
        <path id="Path_28569" data-name="Path 28569" d="M1077.646,356.907s2.514,6.223,4.327,6.663S1080.613,354.924,1077.646,356.907Z" transform="translate(-1077.646 -352.671)" fill="#ffc2b0"/>
        <path id="Path_28570" data-name="Path 28570" d="M1077.646,362s2.514,6.224,4.327,6.664S1080.613,360.018,1077.646,362Z" transform="translate(-1077.646 -355.04)" fill="#ffc2b0"/>
        <path id="Path_28571" data-name="Path 28571" d="M1093.843,367.765l-8.376-5.924s-7.72-10.451-6.247-12.19c1.924-2.271,5.122,5.5,5.122,5.5s5.747,4.814,5.947,4.7c.084-.047.762.214,1.088-.179.549-.662.282-.955-.287-1.63l-2.305-2.076s-3.239-2.74-1.816-3.637c1.278-.806,3.408,2.08,3.408,2.08l5.335,3.814,2.427,3.683a4.334,4.334,0,0,1-.541,5.435l-.1.1A2.841,2.841,0,0,1,1093.843,367.765Z" transform="translate(-1078.291 -349.235)" fill="#ffc2b0"/>
      </g>
      <path id="Path_28572" data-name="Path 28572" d="M1130.461,410.139l-15.418-27.3c.139,1.716-2.4,6.653-10.133,7.131l14.622,25.275C1124.279,415.795,1127.794,413.832,1130.461,410.139Z" transform="translate(-864.464 -263.68)" fill="#99b8db"/>
      <path id="Path_28573" data-name="Path 28573" d="M1223.785,254.8c16.094,10.267,1.434,36.361,3.859,56.246l-21.672-19.006,1.643-34.29,9.585-3.591A7.415,7.415,0,0,1,1223.785,254.8Z" transform="translate(-911.469 -203.603)" fill="#754040"/>
      <rect id="Rectangle_5263" data-name="Rectangle 5263" width="17.237" height="22.716" transform="translate(387.255 244.641)" fill="#a8c4e5"/>
      <g id="Group_9115" data-name="Group 9115" transform="translate(288.243 90.909)">
        <path id="Path_28574" data-name="Path 28574" d="M1221.947,345.209c-4.918-4.874-19.348-11.846-26.028-11.765-2.2.027-2.2-3.391,0-3.418,7.591-.092,21.811,6.009,27.373,11.521,1.565,1.551-1.556,5.545-3.12,3.995Z" transform="translate(-1194.269 -330.025)" fill="#1d60dc"/>
      </g>
      <path id="Path_28575" data-name="Path 28575" d="M1202.369,459.879c-1.386,19.21-13.674,21.148-26.076,13.987s-17.916-14.587-16.693-35.613c0,0,4.292-23.4,16.693-16.241S1203.978,437.573,1202.369,459.879Z" transform="translate(-889.824 -281.267)" fill="#6499d9"/>
      <path id="Path_28576" data-name="Path 28576" d="M1162.865,353.106s-8.212,12.906-7.274,20.691c.6,4.955,4.17,10.524,4.692,12.11,4.273,12.98,1.158,11.31,1.619,14.9,0,0,3.6,17.947,34.077,6.277l12.8-37.6Z" transform="translate(-888.002 -249.852)" fill="#a8c4e5"/>
      <path id="Path_28577" data-name="Path 28577" d="M1209.852,367.672a4.053,4.053,0,0,0,1.4-2.525c.776-6.7,4.461-9.749-2.832-21.225-1.172-1.844-17.126-10.112-29.117-12.28-5.812-1.051-9.485,3.27-11.83,8.69a75.525,75.525,0,0,1-4.773,8.356c-.57,12.31,9.458,32.381,9.5,32.943,0,.026,0,.063,0,.069l20.8,16.4,10.944-19.761h0Z" transform="translate(-891.331 -239.795)" fill="#d9eaff"/>
      <path id="Path_28578" data-name="Path 28578" d="M1190.76,331.454s-10.4,10.734-1.381,18.343,24.369-9.4,24.369-9.4C1205.687,335.354,1197.939,331.929,1190.76,331.454Z" transform="translate(-902.041 -239.781)" fill="#ffc2b0"/>
      <path id="Path_28579" data-name="Path 28579" d="M1154.875,457.66l-4.342,69.125a5.075,5.075,0,0,0,.78,2.676c3.193,5.132,9.082,22.562,41.27,15.014,3.709-.87,5.115-1.246,4.948-4.479l-4.436-60.23-10.428,1.094Z" transform="translate(-885.684 -298.48)" fill="#6499d9"/>
      <path id="Path_28580" data-name="Path 28580" d="M1195.668,322.285l-4.074-18.574,12.566,3.524,3.37,14.468C1208.874,326.025,1198.875,331.754,1195.668,322.285Z" transform="translate(-904.782 -226.878)" fill="#ffc2b0"/>
      <path id="Path_28581" data-name="Path 28581" d="M1198.116,332.782a15.57,15.57,0,0,0,6.608-2.385s-2.326,4.04-5.662,5.189Z" transform="translate(-907.815 -239.289)" fill="#d18b77"/>
      <g id="Group_9117" data-name="Group 9117" transform="translate(132.332 114.263)">
        <path id="Path_28582" data-name="Path 28582" d="M1177.442,566.467,950.694,428.941a10.651,10.651,0,0,0-16.175,9.107h0l-15.175,16.017V574.243h.008c-.122,4.6,3.188,9.49,9.771,13.29l163.16,94.2c11.821,6.825,29.7,7.566,39.939,1.656L1167.7,662a20.444,20.444,0,0,0,9.741-16.173Z" transform="translate(-910.488 -398.661)" fill="#3957a6"/>
        <path id="Path_28583" data-name="Path 28583" d="M1150.161,590.663l27.475-14.289.92-26.524L1031.81,459.9c-12.5-7.217-23.027-39.122-33.853-32.872L920,463.669l.046,16.732,187.88,108.512C1120.424,596.13,1139.334,596.914,1150.161,590.663Z" transform="translate(-910.792 -398.121)" fill="#22366e"/>
        <g id="Group_9116" data-name="Group 9116">
          <path id="Path_28584" data-name="Path 28584" d="M1144.587,583.7l19.206-11.088c11.628-6.713,16.484-15.325,3.057-23.077l-161.218-89c-13.427-7.752-15.434-21.449-27.062-14.736l-67.933,2.829c-11.628,6.713-10.169,18.44,3.257,26.192l185.327,107C1112.648,589.574,1132.959,590.416,1144.587,583.7Z" transform="translate(-902.787 -406.393)" fill="#a8c4e5"/>
          <path id="Path_28585" data-name="Path 28585" d="M970.719,378.216a33.8,33.8,0,0,0-33.8,0l-26.284,15.175c-11.628,6.713-10.17,18.44,3.257,26.192l185.327,107c13.427,7.752,33.738,8.594,45.366,1.88l24.028-13.872a12.771,12.771,0,0,0,0-22.119Z" transform="translate(-902.787 -373.688)" fill="#f6f9fc"/>
        </g>
      </g>
      <path id="Path_28586" data-name="Path 28586" d="M1303.089,585.671l38.746-12.778-22.106-12.763-21.637,5.239Z" transform="translate(-954.315 -346.141)" fill="#b0cdf0" opacity="0.4"/>
      <g id="Group_9121" data-name="Group 9121" transform="translate(293.393 171.466)">
        <g id="Group_9118" data-name="Group 9118" transform="translate(16.909 40.952)">
          <path id="Path_28587" data-name="Path 28587" d="M1259.617,590.421l14.6-4.33c1.172-.348,1.138-1.632-.075-2.825l-20.625-20.291a4.7,4.7,0,0,0-4.02-1.425l-13.135,3.894c-1.113.33-1.147,1.512-.077,2.669l19.156,20.727C1256.564,590.049,1258.454,590.766,1259.617,590.421Z" transform="translate(-1235.509 -559.177)" fill="#8aacce"/>
          <path id="Path_28588" data-name="Path 28588" d="M1259.617,586.149l14.6-4.33c1.172-.347,1.138-1.632-.075-2.825L1253.521,558.7a4.7,4.7,0,0,0-4.02-1.426l-13.135,3.895c-1.113.33-1.147,1.511-.077,2.669l19.156,20.727C1256.564,585.777,1258.454,586.494,1259.617,586.149Z" transform="translate(-1235.509 -557.19)" fill="#3171bd"/>
        </g>
        <g id="Group_9119" data-name="Group 9119">
          <path id="Path_28589" data-name="Path 28589" d="M1208.949,504.429l69.362-23.733c.515-.175.992-.018,2.031.6l3.595,2.067-10.844,40.845a1.488,1.488,0,0,1-.929,1.238s-68.127,18.751-68.069,18.266Z" transform="translate(-1203.989 -480.63)" fill="#d3e5f5"/>
          <path id="Path_28590" data-name="Path 28590" d="M1234.3,539.221c-7.684-6.8-17.949,18.5-24.421,27.814a21.391,21.391,0,0,0-1.565,2.729l-4.053-2.81a3.587,3.587,0,0,1-.255-2.542l4.385-38.3.022-.189a1.844,1.844,0,0,1,.447-.8Z" transform="translate(-1203.897 -501.324)" fill="#bedafa"/>
          <path id="Path_28591" data-name="Path 28591" d="M1287.728,486.058c.052-.427-.333-.632-.857-.455L1217.8,508.986a1.748,1.748,0,0,0-.57.335,1.478,1.478,0,0,0-.644.913l-4.816,40.679c-.053.452.367.666.935.476l68.764-23.092a1.691,1.691,0,0,0,1.129-1.169l.326-2.75h0Z" transform="translate(-1207.558 -482.913)" fill="#7da5d4"/>
        </g>
        <g id="Group_9120" data-name="Group 9120" transform="translate(24.118 19.8)">
          <path id="Path_28592" data-name="Path 28592" d="M1251.3,528.527l31.714-10.851c.235-.08.454-.008.929.276l1.644.945-4.958,18.675a.681.681,0,0,1-.425.566s-31.149,8.573-31.123,8.352Z" transform="translate(-1249.028 -517.646)" fill="#3171bd"/>
          <path id="Path_28593" data-name="Path 28593" d="M1262.884,544.434c-3.513-3.11-8.207,8.458-11.166,12.718A9.8,9.8,0,0,0,1251,558.4l-1.853-1.284a1.639,1.639,0,0,1-.117-1.162l2-17.511.01-.086a.84.84,0,0,1,.2-.367Z" transform="translate(-1248.985 -527.108)" fill="#3171bd"/>
          <path id="Path_28594" data-name="Path 28594" d="M1253.014,550.143l31.44-10.558a.773.773,0,0,0,.516-.534l2.2-18.6c.025-.207-.168-.3-.427-.218l-31.44,10.558a.775.775,0,0,0-.516.534l-2.2,18.6C1252.562,550.133,1252.754,550.231,1253.014,550.143Z" transform="translate(-1250.659 -518.834)" fill="#9ec4f0"/>
          <path id="Path_28595" data-name="Path 28595" d="M1253.576,547.434l31.58-10.692c.24-.081.218,1.1.242.906l2.2-17.521c.024-.2-.152-.289-.392-.208l-31.579,10.691a.723.723,0,0,0-.479.5l-1.959,16.113C1253.16,547.422,1253.337,547.515,1253.576,547.434Z" transform="translate(-1250.937 -518.69)" fill="#9ec4f0"/>
        </g>
        <path id="Path_28596" data-name="Path 28596" d="M1289.188,558.658a5.067,5.067,0,0,0-.232-1.2l-.434-6.482c-.2-3.056-3.251-5.4-5.973-4.593l-13.9,4.117a3.96,3.96,0,0,0-2.724,4.338l1.747,18.24c.01.113.03.223.05.333l.617,6.5c.216,2.444,2.678,4.354,4.8,3.727l14.976-4.431a3.211,3.211,0,0,0,2.207-3.452Z" transform="translate(-1232.737 -511.137)" fill="#b7d8f7"/>
      </g>
      <g id="Group_9127" data-name="Group 9127" transform="translate(330.281 197.65)">
        <g id="Group_9126" data-name="Group 9126">
          <g id="Group_9122" data-name="Group 9122" transform="translate(0 4.17)">
            <path id="Path_28597" data-name="Path 28597" d="M1273.511,544.949h0a.649.649,0,0,1-.645-.753l.724-6.065a.864.864,0,0,1,.824-.753h0a.648.648,0,0,1,.644.753l-.724,6.065A.865.865,0,0,1,1273.511,544.949Z" transform="translate(-1272.861 -537.378)" fill="#3171bd"/>
          </g>
          <g id="Group_9123" data-name="Group 9123" transform="translate(4.402 2.712)">
            <path id="Path_28598" data-name="Path 28598" d="M1281.741,542.225h0a.649.649,0,0,1-.644-.753l.724-6.065a.865.865,0,0,1,.824-.754h0a.649.649,0,0,1,.645.754l-.724,6.065A.866.866,0,0,1,1281.741,542.225Z" transform="translate(-1281.091 -534.653)" fill="#3171bd"/>
          </g>
          <g id="Group_9124" data-name="Group 9124" transform="translate(8.804 1.255)">
            <path id="Path_28599" data-name="Path 28599" d="M1289.971,539.5h0a.649.649,0,0,1-.645-.753l.724-6.066a.865.865,0,0,1,.824-.753h0a.649.649,0,0,1,.645.753l-.724,6.066A.866.866,0,0,1,1289.971,539.5Z" transform="translate(-1289.321 -531.929)" fill="#3171bd"/>
          </g>
          <g id="Group_9125" data-name="Group 9125" transform="translate(13.108)">
            <path id="Path_28600" data-name="Path 28600" d="M1298.016,537.153h0a.648.648,0,0,1-.645-.753l.724-6.065a.864.864,0,0,1,.824-.753h0a.648.648,0,0,1,.645.753l-.724,6.065A.864.864,0,0,1,1298.016,537.153Z" transform="translate(-1297.365 -529.582)" fill="#3171bd"/>
          </g>
        </g>
      </g>
      <path id="Path_28601" data-name="Path 28601" d="M1106.431,683.552l-91.31-52.718a7.822,7.822,0,0,1-3.254-6.218h0c0-2.386,1.464-3.493,3.254-2.46l91.31,52.718a7.822,7.822,0,0,1,3.254,6.218h0C1109.685,683.478,1108.221,684.585,1106.431,683.552Z" transform="translate(-821.189 -374.809)" fill="#e9f5ff"/>
      <path id="Path_28602" data-name="Path 28602" d="M1165.351,332.147c-2.406,5.187-6.7,14.5-10.533,25.054,0,0-3.805,9.042,5.157,19.344,0,0,2.128,6.03-.222,11.114-.056.12-.114.24-.174.358a28.852,28.852,0,0,0-2.97,9.916l21.831,12.6,17.218,9.94s-4.166-20.485-5.483-29.157c-1.376-9.057.327-24.8,4.367-31.8a134.843,134.843,0,0,1,9.348-13.755s3.592-3.034-5.75-6.4c0,0-13.724,13.234-16.693,28.182l-17.759-8.027s2.809-22.121,10.392-27.819l-3.849-1.106C1168.439,330.078,1166.136,330.454,1165.351,332.147Z" transform="translate(-887.304 -239.281)" fill="#1d60dc"/>
      <path id="Path_28603" data-name="Path 28603" d="M1172.029,293.231s-6.971-6.007-5.183-13.22,11.212-13.191,11.212-13.191Z" transform="translate(-893.135 -209.719)" fill="#754040"/>
      <rect id="Rectangle_5264" data-name="Rectangle 5264" width="25.744" height="41.678" rx="12.872" transform="matrix(0.994, 0.107, -0.107, 0.994, 279.111, 49.673)" fill="#ffc2b0"/>
      <path id="Path_28604" data-name="Path 28604" d="M1193.357,263.954c-4.415-5.683-4.707-1.483-8.94-3.844-4.593-2.562-10.163-.841-6.3-4.405,2.076-1.913,7.454-4.667,12.185-5.728,13.244-2.971,22.924,8.247,21.307,20.5,0,0-1.431,19.328-13.184,20.595,0,0-1.028-3.588-.293-5.039.76-1.5,1.114-4.126-1.566-8.091C1194.9,275.472,1198.267,270.274,1193.357,263.954Z" transform="translate(-897.912 -201.661)" fill="#915151"/>
      <g id="Group_9128" data-name="Group 9128" transform="translate(277.358 67.76)">
        <path id="Path_28605" data-name="Path 28605" d="M1178.009,311.352l5.471,3.436a.7.7,0,0,1,.313.692c-.164.956-.866,2.926-3.861,1.289-2.1-1.147-2.613-3.512-2.729-4.885A.524.524,0,0,1,1178.009,311.352Z" transform="translate(-1175.445 -298.15)" fill="#fff"/>
        <path id="Path_28606" data-name="Path 28606" d="M1192.456,304.111c.507.065.836.836.8,1.775a2.572,2.572,0,0,1-.248,1.067c-.173.333-.412.5-.675.457a.459.459,0,0,1-.055-.011c-.462-.119-.78-.86-.747-1.764C1191.567,304.7,1191.963,304.04,1192.456,304.111Z" transform="translate(-1182.11 -294.821)" fill="#21275e"/>
        <path id="Path_28607" data-name="Path 28607" d="M1177.377,295.115c.264.039.487.268.634.647a2.9,2.9,0,0,1,.168,1.128c-.035.94-.431,1.6-.922,1.524a.515.515,0,0,1-.056-.011c-.461-.119-.779-.859-.746-1.763C1176.49,295.7,1176.886,295.044,1177.377,295.115Z" transform="translate(-1175.097 -290.637)" fill="#21275e"/>
        <path id="Path_28608" data-name="Path 28608" d="M1191.28,297.811a6.462,6.462,0,0,1,3.586,2.339c.578.783,1.573-.134,1-.916a7.932,7.932,0,0,0-4.528-2.915c-.871-.146-.925,1.346-.054,1.492Z" transform="translate(-1181.702 -291.195)" fill="#915151"/>
        <path id="Path_28609" data-name="Path 28609" d="M1174.545,288.242a6.257,6.257,0,0,1,3.728,2,.678.678,0,1,0,1-.915,7.715,7.715,0,0,0-4.669-2.581c-.869-.072-.928,1.418-.055,1.492Z" transform="translate(-1173.918 -286.747)" fill="#915151"/>
      </g>
      <path id="Path_28610" data-name="Path 28610" d="M1190.579,268.062s-28.749-4.914-22.662,16.048c0,0-7.7-7.61-1.037-18.888,5.34-9.045,9.753-9.555,9.753-9.555l7.029,4.807Z" transform="translate(-892.025 -204.532)" fill="#915151"/>
      <path id="Path_28611" data-name="Path 28611" d="M1177.009,269.328c-6.444,1.383-12.142,5.389-9.092,15.894,0,0-7.7-7.61-1.037-18.888a30.593,30.593,0,0,1,5.156-6.742,5.67,5.67,0,0,1,7.658-.093h0A5.7,5.7,0,0,1,1177.009,269.328Z" transform="translate(-892.025 -205.644)" fill="#a35b5b"/>
      <path id="Path_28612" data-name="Path 28612" d="M1198.859,278.926c.13-.993,1.271-3.05,1.591-5.635.951-7.692-13.054-13.185-17.88-15l1.854,1.921-.107,6.082c-2.956.6-6.337,2.383-9.541,6.6,0,0,12.279,6.413,18.653-3.348a30.934,30.934,0,0,1,1.675,10.02c-.16,4.959,3.331,6.648,3.331,6.648l1.488-2.965A8.432,8.432,0,0,1,1198.859,278.926Z" transform="translate(-896.96 -205.752)" fill="#a35b5b"/>
      <path id="Path_28613" data-name="Path 28613" d="M1219.069,309.349c-1.935,1.194-3.846.417-4.268-1.737a6.28,6.28,0,0,1,2.741-6.063c1.936-1.195,3.847-.417,4.269,1.737A6.278,6.278,0,0,1,1219.069,309.349Z" transform="translate(-915.537 -225.611)" fill="#ffc2b0"/>
      <path id="Path_28614" data-name="Path 28614" d="M1197.319,413.871l-6-2.478a2.776,2.776,0,0,1-1.366-2.451h0c0-1.037.615-1.633,1.366-1.322l6,2.478a2.775,2.775,0,0,1,1.366,2.451h0C1198.685,413.587,1198.07,414.182,1197.319,413.871Z" transform="translate(-904.019 -275.168)" fill="#f7d548"/>
      <path id="Path_28615" data-name="Path 28615" d="M684.342,331.16s-14.913,9.141-19.992,6.241c-4.879,1.525-2.774-11.141,5.016-17.207,6.949-5.41,19.7-10.308,19.7-10.308l11.667,4.067-.593,10.859Z" transform="translate(-658.341 -229.749)" fill="#4176d9"/>
      <path id="Path_28616" data-name="Path 28616" d="M784.455,379.127s-27.992,2.835-30.764-6.423c-2.333-7.792-5.41-35.017-6.326-37.289s-20.687,20.92-20.687,20.92,13.245,25.943,16.525,29.559c7,7.72,15.143,10.576,39.572,3.68Z" transform="translate(-688.546 -241.55)" fill="#4176d9"/>
      <ellipse id="Ellipse_1130" data-name="Ellipse 1130" cx="42.884" cy="24.755" rx="42.884" ry="24.755" transform="translate(0 288.334)" fill="#a8c4e5" opacity="0.4"/>
      <path id="Path_28617" data-name="Path 28617" d="M754.312,731.856c-.348-.151-3.773-2.9-4.1-3.038-.5-.217-5.39-2.637-6.164-3.062-1.63-.895-5.609-1.483-3.585-6.731,2.961-7.678,23.4,4.454,23.4,4.454l6.84,5.29a2.3,2.3,0,0,1,.806,2.63h0c-.6,1.863-3.084,3.241-5.371,2.969C762.208,733.9,760.154,734.392,754.312,731.856Z" transform="translate(-694.697 -418.859)" fill="#fff"/>
      <path id="Path_28618" data-name="Path 28618" d="M754.546,726.933c-.348-.151-3.773-2.9-4.1-3.038-.5-.217-6.423-2.582-7.2-3.007-1.631-.895-5.486-1.989-3.463-7.237,2.961-7.678,24.307,4.9,24.307,4.9l6.84,5.29a2.3,2.3,0,0,1,.806,2.629h0c-.6,1.864-3.085,3.241-5.372,2.969C762.443,728.977,760.388,729.469,754.546,726.933Z" transform="translate(-694.376 -416.389)" fill="#22366e"/>
      <path id="Path_28619" data-name="Path 28619" d="M678.606,755.986c-.294-.24-2.844-3.812-3.118-4.037-.422-.344-4.47-4-5.1-4.62-1.326-1.3-5-2.95-1.622-7.451,4.936-6.586,21.305,10.639,21.305,10.639l5.145,6.947a2.3,2.3,0,0,1,.061,2.749h0c-1.086,1.63-3.85,2.282-5.977,1.4C685.65,760.1,683.539,760.013,678.606,755.986Z" transform="translate(-660.965 -429.044)" fill="#fff"/>
      <path id="Path_28620" data-name="Path 28620" d="M680.146,751.3c-.294-.24-2.844-3.812-3.118-4.037-.421-.344-5.48-4.228-6.11-4.847-1.327-1.3-4.74-3.4-1.366-7.9,4.936-6.586,22.06,11.319,22.06,11.319l5.145,6.947a2.3,2.3,0,0,1,.061,2.749h0c-1.086,1.63-3.849,2.282-5.977,1.4C687.19,755.411,685.079,755.328,680.146,751.3Z" transform="translate(-661.303 -426.569)" fill="#22366e"/>
      <g id="Group_9129" data-name="Group 9129" transform="translate(6.01 176.752)">
        <path id="Path_28621" data-name="Path 28621" d="M668.208,501.862a18.4,18.4,0,0,0-.784,12.222c5.257,18.542,6.173,34.422,4.463,54.232-1.458,16.883-5.4,34.129-5.26,51.1.085,10.03,17.876,10.051,17.791,0-.058-6.881,1.768-13.776,2.6-20.589,1.3-10.651,3.433-23.449,4.323-34.144,1.9-22.8,5.9-47.426-1.234-69.479-3.076-9.51-24.918-3.117-21.817,6.47Z" transform="translate(-666.624 -490.512)" fill="#1d60dc"/>
      </g>
      <g id="Group_9131" data-name="Group 9131" transform="translate(33.081 174.718)">
        <g id="Group_9130" data-name="Group 9130">
          <path id="Path_28622" data-name="Path 28622" d="M717.235,495.85c3.437,12.562,10.862,29.044,12.125,41.979a133.307,133.307,0,0,1,.371,24.526,328.642,328.642,0,0,0-1.836,39.971c.051,10.031,16.753,11.356,16.7,1.3-.08-15.7,2.784-31.51,4.314-47.107.8-8.185-.529-16.4-1.362-24.555-1.363-13.35-3.033-26.776-6.581-39.745-2.644-9.668-17.7-5.564-15.043,4.145Z" transform="translate(-717.235 -486.71)" fill="#1d60dc"/>
        </g>
      </g>
      <path id="Path_28623" data-name="Path 28623" d="M706.68,509.2h0c-1.441,1.614,4.749-6.236,2.9-5.118-3.858,2.331-25.515,17.038-30.022,17.113-5.444.09-2.271-5.17-6.323-8.8-3.845-3.449-4.75-9.051-5.125-14.2a8.919,8.919,0,0,1,.394-4.219,9.084,9.084,0,0,1,3.115-3.347c9.621-7.279,28.546-25.3,41.987-19.534C729.134,477.743,713.573,501.472,706.68,509.2Z" transform="translate(-661.27 -304.205)" fill="#1d60dc"/>
      <path id="Path_28624" data-name="Path 28624" d="M714.339,322.987c2.848,3.671,2.511,5.94,2.374,10.952a11.2,11.2,0,0,1-8.177,10.465L660.31,357.923s-1.282-19.461,6.378-23.9c5.14-2.98,13.436-8.044,19.68-11.844C695.539,316.6,707.759,314.506,714.339,322.987Z" transform="translate(-657.64 -233.197)" fill="#4d8bff"/>
      <path id="Path_28625" data-name="Path 28625" d="M718.15,416.393c.342-7.485-2.829-47.959,0-80.866l-54.285,25.818c.273,24.8-.318,55.536,1.476,75.6C672.385,450.457,695.894,430.791,718.15,416.393Z" transform="translate(-659.331 -241.675)" fill="#4d8bff"/>
      <ellipse id="Ellipse_1131" data-name="Ellipse 1131" cx="6.132" cy="6.13" rx="6.132" ry="6.13" transform="translate(45.521 50.971)" fill="#1b2d4f"/>
      <path id="Path_28626" data-name="Path 28626" d="M771.948,721.151s-5.174-2.031-8.267,4.966" transform="translate(-705.756 -420.905)" fill="none" stroke="#fff" stroke-linecap="round" stroke-linejoin="round" stroke-width="5.477"/>
      <path id="Path_28627" data-name="Path 28627" d="M779.675,726.866s-5.173-2.031-8.267,4.966" transform="translate(-709.35 -423.563)" fill="none" stroke="#fff" stroke-linecap="round" stroke-linejoin="round" stroke-width="5.477"/>
      <path id="Path_28628" data-name="Path 28628" d="M695.792,748.258s-5.174-2.031-8.267,4.965" transform="translate(-670.335 -433.512)" fill="none" stroke="#fff" stroke-linecap="round" stroke-linejoin="round" stroke-width="5.477"/>
      <path id="Path_28629" data-name="Path 28629" d="M703.519,753.973s-5.173-2.031-8.267,4.965" transform="translate(-673.929 -436.17)" fill="none" stroke="#fff" stroke-linecap="round" stroke-linejoin="round" stroke-width="5.477"/>
      <path id="Path_28630" data-name="Path 28630" d="M719.967,328.727s7.161-2.269,8.421-4.349S731,315.663,731,315.663l-6.4-1.881Z" transform="translate(-685.424 -231.562)" fill="#4176d9"/>
      <path id="Path_28631" data-name="Path 28631" d="M715.915,317.129l5.521-20.368-14,3.876-4.491,16.632C701.98,319.977,711.858,327.515,715.915,317.129Z" transform="translate(-677.478 -223.645)" fill="#ffc2b0"/>
      <path id="Path_28632" data-name="Path 28632" d="M724.66,324.692s-5.738-2.937-5.761-2.992c0,0,1.961,4.175,4.812,5.8Z" transform="translate(-684.927 -235.244)" fill="#ea8a6c"/>
      <rect id="Rectangle_5265" data-name="Rectangle 5265" width="26.251" height="42.483" rx="13.126" transform="translate(54.381 89.916) rotate(-178.088)" fill="#ffc2b0"/>
      <path id="Path_28633" data-name="Path 28633" d="M711.4,259.748c4.16,1.958,9.319,3.049,13.931,1.271,5-1.929,8.54-8.955,4.614-12.606-2.122-1.974-7.561-3.755-12.083-5.589-12.826-5.2-26.728,1.369-27.216,16.007,0,0-.956,16.229,7.361,21.639a2.6,2.6,0,0,0,3.9-1.564h0s-4.21-5.98,2.949-10.3c1.647-.995,2.025-3.3,1.889-5.693A3.284,3.284,0,0,1,711.4,259.748Z" transform="translate(-671.773 -197.737)" fill="#22366e"/>
      <path id="Path_28634" data-name="Path 28634" d="M702.623,299.15c1.784,1.482,3.825.97,4.558-1.143a6.4,6.4,0,0,0-1.9-6.51c-1.783-1.483-3.824-.971-4.558,1.143A6.4,6.4,0,0,0,702.623,299.15Z" transform="translate(-676.351 -220.802)" fill="#ffc2b0"/>
      <ellipse id="Ellipse_1132" data-name="Ellipse 1132" cx="6.13" cy="6.132" rx="6.13" ry="6.132" transform="translate(51.1 59.069) rotate(-89.844)" fill="#22366e"/>
      <ellipse id="Ellipse_1133" data-name="Ellipse 1133" cx="6.13" cy="6.132" rx="6.13" ry="6.132" transform="translate(43.385 54.831) rotate(-89.843)" fill="#22366e"/>
      <path id="Path_28635" data-name="Path 28635" d="M689.582,338.37c-3.813-1.1-9.488-3.648-15.5.536l7.832-8.338,8.543-1.708c-.971,3.015-.877,4.776,1.391,7.12A1.855,1.855,0,0,1,689.582,338.37Z" transform="translate(-664.084 -238.575)" fill="#4176d9"/>
      <path id="Path_28636" data-name="Path 28636" d="M701.586,364.577a2.16,2.16,0,0,0,2.16,2.159h0a2.16,2.16,0,0,0,2.16-2.159V345.86a2.16,2.16,0,0,0-2.16-2.16h0a2.16,2.16,0,0,0-2.16,2.16Z" transform="translate(-676.875 -245.477)" fill="#22366e"/>
      <path id="Path_28637" data-name="Path 28637" d="M728.514,353.81a2.16,2.16,0,0,0,2.16,2.16h0a2.16,2.16,0,0,0,2.16-2.16V335.093a2.16,2.16,0,0,0-2.16-2.159h0a2.16,2.16,0,0,0-2.16,2.159Z" transform="translate(-689.399 -240.469)" fill="#22366e"/>
      <path id="Path_28638" data-name="Path 28638" d="M664.111,418.673l5.407-13.984-4.958,52.139Z" transform="translate(-659.445 -273.843)" fill="#4176d9"/>
      <g id="Group_9132" data-name="Group 9132" transform="translate(38.957 63.495)">
        <path id="Path_28639" data-name="Path 28639" d="M744.925,304.25l-6.029,3.12a.736.736,0,0,0-.389.7c.088,1.016.651,3.14,3.931,1.688,2.3-1.018,3.043-3.449,3.284-4.878A.551.551,0,0,0,744.925,304.25Z" transform="translate(-733.003 -290.591)" fill="#fff"/>
        <path id="Path_28640" data-name="Path 28640" d="M735.044,295.378c-.536.024-.948.8-.995,1.788a2.714,2.714,0,0,0,.166,1.139c.152.364.389.555.666.538a.513.513,0,0,0,.059-.007c.494-.084.892-.832.936-1.782C735.923,296.068,735.565,295.346,735.044,295.378Z" transform="translate(-730.929 -286.497)" fill="#21275e"/>
        <path id="Path_28641" data-name="Path 28641" d="M751.62,287.275a.945.945,0,0,0-.721.622,3.058,3.058,0,0,0-.274,1.167c-.046.987.312,1.708.833,1.676a.553.553,0,0,0,.059-.007c.494-.084.891-.831.936-1.781C752.5,287.964,752.14,287.244,751.62,287.275Z" transform="translate(-738.639 -282.728)" fill="#21275e"/>
        <path id="Path_28642" data-name="Path 28642" d="M733.372,288.9a6.792,6.792,0,0,0-3.961,2.135c-.673.77-1.635-.277-.963-1.046a8.339,8.339,0,0,1,5-2.656c.925-.077.852,1.49-.073,1.567Z" transform="translate(-728.22 -282.756)" fill="#22366e"/>
        <path id="Path_28643" data-name="Path 28643" d="M751.609,280.342a6.572,6.572,0,0,0-4.079,1.774.712.712,0,1,1-.963-1.046,8.107,8.107,0,0,1,5.115-2.295c.916,0,.848,1.567-.073,1.567Z" transform="translate(-736.635 -278.775)" fill="#22366e"/>
      </g>
      <path id="Path_28644" data-name="Path 28644" d="M788.74,789.5l12.819-7.4a5.519,5.519,0,0,1,.947-.684l17.057-9.848a10.938,10.938,0,0,1,9.895,0L907.8,817.144c2.711,1.577,2.695,4.158-.036,5.734l-12.818,7.4a5.545,5.545,0,0,1-.947.684l-17.058,9.848a10.94,10.94,0,0,1-9.9,0L788.7,795.238C785.993,793.661,786.009,791.081,788.74,789.5Z" transform="translate(-716.453 -443.933)" fill="#a8c4e5" opacity="0.4"/>
      <g id="Group_9134" data-name="Group 9134" transform="translate(109.031 298.497)">
        <g id="Group_9133" data-name="Group 9133">
          <path id="Path_28645" data-name="Path 28645" d="M941.023,780.909l-.688-4.779-77.085-46.4.121-11.614-3.939,2.456-.206,11.239,1,.6Z" transform="translate(-859.226 -718.118)" fill="#5366c4"/>
        </g>
        <ellipse id="Ellipse_1134" data-name="Ellipse 1134" cx="6.713" cy="10.339" rx="6.713" ry="10.339" transform="translate(67.764 64.286) rotate(-28.866)" fill="#5366c4"/>
        <path id="Path_28646" data-name="Path 28646" d="M1000.737,837.761l.379.227c1.388.833,3.046.855,3.074-.659l1.343-10.6a5.468,5.468,0,0,0-2.473-4.266l-4.038-2.424c-1.388-.833-2.547-.276-2.574,1.237l1.559,12.388C997.978,835.177,999.349,836.928,1000.737,837.761Z" transform="translate(-923.048 -765.342)" fill="#5366c4"/>
      </g>
      <path id="Path_28647" data-name="Path 28647" d="M906.167,740.008l-33.833,22.133-86.481-48.164L833.575,688.6Z" transform="translate(-716.068 -405.891)" fill="#5366c4"/>
      <path id="Path_28648" data-name="Path 28648" d="M836.169,501.906l13.305,103.937,5.008-.856L841.1,503.779Z" transform="translate(-739.471 -319.059)" fill="#5366c4"/>
      <g id="Group_9148" data-name="Group 9148" transform="translate(100.836 213.812)">
        <g id="Group_9147" data-name="Group 9147">
          <g id="Group_9135" data-name="Group 9135" transform="translate(2.877 17.547)">
            <path id="Path_28649" data-name="Path 28649" d="M934.432,663.684l1.237-1.765L849.749,592.6l-.466,3.407Z" transform="translate(-849.284 -592.601)" fill="#5366c4"/>
          </g>
          <g id="Group_9136" data-name="Group 9136" transform="translate(6.788 40.535)">
            <path id="Path_28650" data-name="Path 28650" d="M936.4,693.455l1.08-1.882-80.461-55.994L856.6,639.7Z" transform="translate(-856.596 -635.579)" fill="#5366c4"/>
          </g>
          <g id="Group_9137" data-name="Group 9137" transform="translate(0.205 50.767)">
            <path id="Path_28651" data-name="Path 28651" d="M929.985,713.663l1.057-1.9-85.7-57.06-1.057,1.9Z" transform="translate(-844.289 -654.707)" fill="#5366c4"/>
          </g>
          <g id="Group_9138" data-name="Group 9138" transform="translate(14.732 15.492)">
            <path id="Path_28652" data-name="Path 28652" d="M883.352,657.178l2.214-.138-11.906-68.28-2.214.138Z" transform="translate(-871.446 -588.76)" fill="#5366c4"/>
          </g>
          <g id="Group_9139" data-name="Group 9139" transform="translate(28.246 26.1)">
            <path id="Path_28653" data-name="Path 28653" d="M908.521,673.308l2.211-.158-11.809-64.558-2.211.158Z" transform="translate(-896.712 -608.592)" fill="#5366c4"/>
          </g>
          <g id="Group_9140" data-name="Group 9140" transform="translate(42.651 39.193)">
            <path id="Path_28654" data-name="Path 28654" d="M929.669,688.237l2.237.018-6.025-55.167-2.237-.018Z" transform="translate(-923.643 -633.07)" fill="#5366c4"/>
          </g>
          <g id="Group_9141" data-name="Group 9141" transform="translate(55.43 50.195)">
            <path id="Path_28655" data-name="Path 28655" d="M952.609,706.282l2.24.048-5.076-52.644-2.24-.048Z" transform="translate(-947.533 -653.638)" fill="#5366c4"/>
          </g>
          <g id="Group_9142" data-name="Group 9142" transform="translate(67.902 61.112)">
            <path id="Path_28656" data-name="Path 28656" d="M974.817,723.055l2.243.086-3.967-49.008-2.243-.086Z" transform="translate(-970.849 -674.047)" fill="#5366c4"/>
          </g>
          <g id="Group_9143" data-name="Group 9143" transform="translate(81.682 72.43)">
            <path id="Path_28657" data-name="Path 28657" d="M998.863,739.163l.089-43.674-2.25-.282-.089,43.674Z" transform="translate(-996.613 -695.207)" fill="#5366c4"/>
          </g>
          <g id="Group_9146" data-name="Group 9146">
            <g id="Group_9145" data-name="Group 9145">
              <g id="Group_9144" data-name="Group 9144">
                <path id="Path_28658" data-name="Path 28658" d="M853.439,635.693l-9.534-75.9,92.53,78.542-2.441,43.181ZM847.183,568.5l2.752,59.32,80.125,46.6,1.952-34.528Z" transform="translate(-843.905 -559.797)" fill="#5366c4"/>
              </g>
            </g>
          </g>
        </g>
      </g>
      <g id="Group_9149" data-name="Group 9149" transform="translate(62.18 211.308)">
        <path id="Path_28659" data-name="Path 28659" d="M773.611,579.98l40.682-21.443-1.975-3.421-40.682,21.443Z" transform="translate(-771.637 -555.116)" fill="#5366c4"/>
      </g>
      <g id="Group_9150" data-name="Group 9150" transform="translate(65.145 231.614)">
        <path id="Path_28660" data-name="Path 28660" d="M779.154,617.943,819.835,596.5l-1.975-3.422-40.682,21.443Z" transform="translate(-777.179 -593.079)" fill="#5366c4"/>
      </g>
      <path id="Path_28661" data-name="Path 28661" d="M792.029,733.822" transform="translate(-718.941 -426.926)" fill="none" stroke="#9ea7af" stroke-miterlimit="10" stroke-width="7.113"/>
      <path id="Path_28662" data-name="Path 28662" d="M865.586,695.442" transform="translate(-753.153 -409.075)" fill="none" stroke="#9ea7af" stroke-miterlimit="10" stroke-width="7.113"/>
      <path id="Path_28663" data-name="Path 28663" d="M792.171,473.232a3.387,3.387,0,0,1,5.181-2.717L817.457,483.1a7.289,7.289,0,0,1,3.085,5.2l.387,4.968-27.172-17.008a3.386,3.386,0,0,1-1.587-3.025Z" transform="translate(-719.005 -304.217)" fill="#f39c12"/>
      <g id="Group_9151" data-name="Group 9151" transform="translate(69.587 306.254)">
        <path id="Path_28664" data-name="Path 28664" d="M866.516,808.067l2.019-3.283-76.2-45.739-2.512-23.259-4.335-3.163,3.1,28.666Z" transform="translate(-785.483 -732.622)" fill="#f8fcff"/>
      </g>
      <g id="Group_9152" data-name="Group 9152" transform="translate(58.115 210.032)">
        <path id="Path_28665" data-name="Path 28665" d="M764.036,552.73l11.194,92,4.995,4.038L768.969,554.6Z" transform="translate(-764.036 -552.73)" fill="#f8fcff"/>
      </g>
      <path id="Path_28666" data-name="Path 28666" d="M924.071,879.711a14.572,14.572,0,0,0,7.139,12.759c4.248,2.223,7.939.115,8.245-4.708A14.573,14.573,0,0,0,932.316,875C928.068,872.779,924.377,874.887,924.071,879.711Z" transform="translate(-780.345 -492.178)" fill="#283d75"/>
      <path id="Path_28667" data-name="Path 28667" d="M932.972,880.69l.379.227c1.388.833,3.046.855,3.074-.659l1.343-10.6a5.468,5.468,0,0,0-2.473-4.267l-4.038-2.424c-1.388-.833-2.547-.277-2.574,1.237l1.559,12.388C930.213,878.106,931.584,879.857,932.972,880.69Z" transform="translate(-782.499 -486.812)" fill="#f8fcff"/>
      <path id="Path_28668" data-name="Path 28668" d="M784.106,794.2a14.571,14.571,0,0,0,7.139,12.759c4.249,2.223,7.94.115,8.245-4.708a14.571,14.571,0,0,0-7.139-12.759C788.1,787.27,784.412,789.378,784.106,794.2Z" transform="translate(-715.247 -452.407)" fill="#283d75"/>
      <path id="Path_28669" data-name="Path 28669" d="M793.007,795.18l.379.227c1.388.833,3.046.855,3.074-.658l1.343-10.6a5.468,5.468,0,0,0-2.473-4.266l-4.038-2.424c-1.388-.833-2.547-.277-2.574,1.237l1.559,12.388C790.248,792.6,791.619,794.347,793.007,795.18Z" transform="translate(-717.4 -447.041)" fill="#f8fcff"/>
      <path id="Path_28670" data-name="Path 28670" d="M720.811,525.706a3.387,3.387,0,0,1,5.181-2.717l20.1,12.584a7.288,7.288,0,0,1,3.085,5.2l.387,4.968L722.4,528.732a3.388,3.388,0,0,1-1.587-3.026Z" transform="translate(-685.815 -328.623)" fill="#f39c12"/>
      <g id="Group_9153" data-name="Group 9153" transform="translate(92.199 241.011)">
        <path id="Path_28671" data-name="Path 28671" d="M847.746,632.274l-6.153-11.853h-7.112s-4.335,9.3-5.774,12.376a7.482,7.482,0,0,0-.455.969h0a7.416,7.416,0,0,0-.5,2.666v36.238c-.08,6.7,21.259,6.739,21.259,0V636.433A7.434,7.434,0,0,0,847.746,632.274Z" transform="translate(-827.758 -615.193)" fill="#a8c4e5"/>
        <path id="Path_28672" data-name="Path 28672" d="M845.742,637.352c-1.9,5.6-13.519,4.569-13.962,0l-2.845,5.248v35.6c.088,7.65,19.963,6.894,19.963,0l-.473-35.8Z" transform="translate(-828.305 -623.068)" fill="#d9eaff"/>
        <rect id="Rectangle_5266" data-name="Rectangle 5266" width="9.383" height="3.06" transform="translate(5.738 2.168)" fill="#1d60dc"/>
        <path id="Path_28673" data-name="Path 28673" d="M849.017,681.542c0,5.423-21.259,5.423-21.259,0V659.533c3.482,5.658,18.388,4.756,21.259,0Z" transform="translate(-827.758 -633.384)" fill="#4d8bff"/>
        <path id="Path_28674" data-name="Path 28674" d="M847.867,618.6c0,.934-2.1,2.236-4.691,2.236s-4.692-1.3-4.692-2.236,2.1-1.691,4.692-1.691S847.867,617.664,847.867,618.6Z" transform="translate(-832.747 -613.559)" fill="#1d60dc"/>
        <path id="Path_28675" data-name="Path 28675" d="M847.867,612.815c0,1.2-2.1,2.168-4.691,2.168s-4.692-.97-4.692-2.168,2.1-2.168,4.692-2.168S847.867,611.618,847.867,612.815Z" transform="translate(-832.747 -610.647)" fill="#4d8bff"/>
        <path id="Path_28676" data-name="Path 28676" d="M848.133,635.483c0,1.878-3.1,3.4-6.933,3.4s-6.933-1.522-6.933-3.4,3.1-3.4,6.933-3.4S848.133,633.605,848.133,635.483Z" transform="translate(-830.785 -620.617)" fill="#fff"/>
      </g>
      <g id="Group_9155" data-name="Group 9155" transform="translate(78.026 250.784)">
        <ellipse id="Ellipse_1135" data-name="Ellipse 1135" cx="8.76" cy="4.432" rx="8.76" ry="4.432" transform="translate(0.064 52.195)" fill="#f39c12"/>
        <g id="Group_9154" data-name="Group 9154">
          <rect id="Rectangle_5267" data-name="Rectangle 5267" width="6.768" height="13.226" transform="translate(5.653 4.422) rotate(-0.096)" fill="#f39c12"/>
          <path id="Path_28677" data-name="Path 28677" d="M818.719,635.634c0,2.692-7.261,2.7-7.266.012l-.008-4.56c2.038,1.235,4.343.516,7.265-.012Z" transform="translate(-805.998 -629.921)" fill="#22366e"/>
          <path id="Path_28678" data-name="Path 28678" d="M815.861,696.441l-11.545.019c-1.642,0-2.987-.88-2.99-1.962l-.066-39.41c.477-8.709,17.233-8.82,17.517-.029l.066,39.41C818.846,695.551,817.5,696.438,815.861,696.441Z" transform="translate(-801.261 -638.031)" fill="#f39c12"/>
          <path id="Path_28679" data-name="Path 28679" d="M818.781,677a5.044,5.044,0,0,0-9.473.016l-.072,26.153c0,2.752,9.709,2.735,9.7-.016Z" transform="translate(-804.97 -649.748)" fill="#22366e"/>
          <path id="Path_28680" data-name="Path 28680" d="M818.6,681.77a3.27,3.27,0,0,0-6.43.011l-.043,21.139c0,1.913,6.59,1.9,6.587-.011Z" transform="translate(-806.313 -652.259)" fill="#4d8bff"/>
          <ellipse id="Ellipse_1136" data-name="Ellipse 1136" cx="3.633" cy="1.455" rx="3.633" ry="1.455" transform="translate(5.452)" fill="#3957a6"/>
        </g>
      </g>
      <g id="Group_9158" data-name="Group 9158" transform="translate(114.716 230.798)">
        <path id="Path_28681" data-name="Path 28681" d="M916.628,656.365s-1.78-12.716-20.319-18.526-17.389-2.961-17.389-2.961l12.629,16.759Z" transform="translate(-874.063 -611.379)" fill="#a69d8f"/>
        <g id="Group_9157" data-name="Group 9157">
          <ellipse id="Ellipse_1137" data-name="Ellipse 1137" cx="22.336" cy="6.739" rx="22.336" ry="6.739" transform="translate(23.027 62.67) rotate(-85.332)" fill="#f39c12"/>
          <path id="Path_28682" data-name="Path 28682" d="M928.869,637.5l-.726-1.308c2.446.965,4.435,1.193,5.869.526l.726,1.308A10.419,10.419,0,0,1,928.869,637.5Z" transform="translate(-896.964 -612.314)" fill="#f7d548"/>
          <path id="Path_28683" data-name="Path 28683" d="M928.079,645.362l-.749-1.282c2.742.968,4.972,1.21,6.348.24l.749,1.282A11.2,11.2,0,0,1,928.079,645.362Z" transform="translate(-896.586 -615.984)" fill="#f7d548"/>
          <path id="Path_28684" data-name="Path 28684" d="M927.056,654.64l-.7-1.329c2.907,1.6,5.328,2.127,6.968.93l.7,1.33C932.229,656.415,929.834,655.947,927.056,654.64Z" transform="translate(-896.131 -620.277)" fill="#f7d548"/>
          <g id="Group_9156" data-name="Group 9156" transform="translate(0 4.596)">
            <path id="Path_28685" data-name="Path 28685" d="M877.06,600.145c2.749,4.515,3.183,6.946,1.464,10.633.09-.16-.477-.2-.4-.365C879.5,607.556,879.94,605.841,877.06,600.145Z" transform="translate(-873.205 -600.145)" fill="#f1c40f"/>
            <path id="Path_28686" data-name="Path 28686" d="M869.853,602.221c.536,4.774,1.788,7.109,5.876,10.117-.192-.127.3-.293.118-.425C872.64,609.592,871.07,608.111,869.853,602.221Z" transform="translate(-869.853 -601.111)" fill="#f1c40f"/>
            <path id="Path_28687" data-name="Path 28687" d="M882.353,648.914l-.467-.143c1.407-10.934.955-20.061-3.838-32.082l.793.243A63.648,63.648,0,0,1,882.353,648.914Z" transform="translate(-873.665 -607.84)" fill="#f39c12"/>
            <path id="Path_28688" data-name="Path 28688" d="M876.722,608.786c.64,1.806.743,3.4.232,3.563s-1.444-1.173-2.084-2.98a7.068,7.068,0,0,1-.232-3.563A7.491,7.491,0,0,1,876.722,608.786Z" transform="translate(-872.019 -602.778)" fill="#f1c40f"/>
            <path id="Path_28689" data-name="Path 28689" d="M883.128,618.69c-.172,1.594-.793,2.521-1.389,2.071s-.94-2.109-.769-3.7a2.469,2.469,0,0,1,1.389-2.07A8.919,8.919,0,0,1,883.128,618.69Z" transform="translate(-875.003 -607.048)" fill="#f1c40f"/>
            <path id="Path_28690" data-name="Path 28690" d="M875.71,618.5c1.138,1.115,1.92,2.613,1.746,3.346s-1.237.423-2.374-.693a8.872,8.872,0,0,1-1.746-3.346A2.42,2.42,0,0,1,875.71,618.5Z" transform="translate(-871.473 -608.324)" fill="#f1c40f"/>
            <path id="Path_28691" data-name="Path 28691" d="M877.892,627.524c1.175.9,2.056,2.277,1.966,3.083s-1.115.732-2.29-.165a8.163,8.163,0,0,1-1.966-3.083A2.02,2.02,0,0,1,877.892,627.524Z" transform="translate(-872.527 -612.672)" fill="#f1c40f"/>
            <path id="Path_28692" data-name="Path 28692" d="M885.854,627.623c-.35,1.439-1.1,2.143-1.675,1.574s-.758-2.2-.409-3.637a2.026,2.026,0,0,1,1.676-1.573A8.183,8.183,0,0,1,885.854,627.623Z" transform="translate(-876.243 -611.234)" fill="#f1c40f"/>
          </g>
          <path id="Path_28693" data-name="Path 28693" d="M904.424,640.093c.863,25.135-12.276,19.639-13.139-5.5s-2.013-45.7,5.007-42.763S903.562,614.957,904.424,640.093Z" transform="translate(-879.52 -591.553)" fill="#f39c12"/>
          <path id="Path_28694" data-name="Path 28694" d="M890.957,634.613s-4.4-46.927,5.007-42.763c-2.807,10.455-3.292,22.524-1.746,36.006Z" transform="translate(-879.191 -591.57)" fill="#f7d548"/>
          <path id="Path_28695" data-name="Path 28695" d="M910.361,700.13c-23.973-1.639-35.819-9.151-37.708-21.487,5.13-11.165,2.387-27.769,3.358-43.157,5.477,11.885,18.552,18.711,37.708,21.487C907.45,669.117,913.143,671.187,910.361,700.13Z" transform="translate(-871.155 -611.987)" fill="#dbd0bf"/>
          <path id="Path_28696" data-name="Path 28696" d="M913.592,702.335c-23.216-3.032-37.933-8.446-33.663-19.181,4.693-11.415,2.364-27.782,3.359-43.158-.185,9.415,13.648,15.117,33.663,19.182C911.227,671.634,916.319,673.361,913.592,702.335Z" transform="translate(-874.197 -614.084)" fill="#d3c8b6"/>
          <path id="Path_28697" data-name="Path 28697" d="M898.077,612.46l-.6-2.257c2.332,1,4.278.748,5.759-1.03l.6,2.257A5.774,5.774,0,0,1,898.077,612.46Z" transform="translate(-882.702 -599.748)" fill="#f7d548"/>
          <path id="Path_28698" data-name="Path 28698" d="M898.36,627.433l-.6-2.257c2.615,1.163,4.8,1.069,6.282-1.124l.6,2.257A6.438,6.438,0,0,1,898.36,627.433Z" transform="translate(-882.834 -606.669)" fill="#f7d548"/>
          <path id="Path_28699" data-name="Path 28699" d="M898.528,641.449l-.6-2.257c2.748,1.831,5.093,1.8,6.8-1.215l.6,2.257C903.494,642.636,901.169,642.768,898.528,641.449Z" transform="translate(-882.912 -613.145)" fill="#f7d548"/>
          <path id="Path_28700" data-name="Path 28700" d="M915.507,665.261l-39.28-22.718a14.694,14.694,0,0,0,1.446-7.057c5.935,11.778,18.162,19.179,37.709,21.487C914.462,659.2,914.6,662.019,915.507,665.261Z" transform="translate(-872.818 -611.987)" fill="#e5daca"/>
          <path id="Path_28701" data-name="Path 28701" d="M915.507,665.261c-22.389-5.325-36.633-12.62-39.28-22.718a14.694,14.694,0,0,0,1.446-7.057c5.6,9.775,19.4,16.478,37.709,21.487C914.462,659.2,914.6,662.019,915.507,665.261Z" transform="translate(-872.818 -611.987)" fill="#e5daca"/>
          <path id="Path_28702" data-name="Path 28702" d="M877.673,635.486s-.855,7.3-1.446,7.057c.99,2.342,1.652,5.207,5.412,3.13l.488-4.548Z" transform="translate(-872.818 -611.987)" fill="#f4e7d4"/>
          <path id="Path_28703" data-name="Path 28703" d="M924.687,624.79s-4.271-2.8-5.714,7.8l-1.522,9.457,1.9,1.08S920.685,627.588,924.687,624.79Z" transform="translate(-891.991 -606.856)" fill="#f39c12"/>
        </g>
      </g>
      <g id="Group_9160" data-name="Group 9160" transform="translate(142.815 250.534)">
        <path id="Path_28704" data-name="Path 28704" d="M980.367,669.2s14.72,2.073,12.64,18.841c0,0-8.6,5.73-9.5,5.374s-5.652-11.834-5.652-11.834Z" transform="translate(-948.185 -647.403)" fill="#22366e"/>
        <g id="Group_9159" data-name="Group 9159">
          <path id="Path_28705" data-name="Path 28705" d="M988.173,668.521l-38.609,78.664-.686-1.022L987.487,667.5Z" transform="translate(-934.708 -646.612)" fill="#d68612"/>
          <path id="Path_28706" data-name="Path 28706" d="M986.064,663.389,949,744.339l-.692-1.01,37.059-80.95Z" transform="translate(-934.445 -644.231)" fill="#d68612"/>
          <path id="Path_28707" data-name="Path 28707" d="M987.449,653.216l-37.059,80.95-.692-1.01,37.059-80.95Z" transform="translate(-935.089 -639.499)" fill="#d68612"/>
          <path id="Path_28708" data-name="Path 28708" d="M992,655.525l-37.707,80.048-.557-.745,37.573-80.316Z" transform="translate(-936.967 -640.572)" fill="#d68612"/>
          <path id="Path_28709" data-name="Path 28709" d="M988.289,646.532,953.754,731.1l-.7-.988,34.535-84.568Z" transform="translate(-936.649 -636.4)" fill="#d68612"/>
          <path id="Path_28710" data-name="Path 28710" d="M983.114,641.539l-34.535,84.568-.7-.988,34.535-84.568Z" transform="translate(-934.242 -634.078)" fill="#d68612"/>
          <path id="Path_28711" data-name="Path 28711" d="M981.557,637.251,947.022,721.82l-.7-.988,34.535-84.568Z" transform="translate(-933.518 -632.084)" fill="#d68612"/>
          <path id="Path_28712" data-name="Path 28712" d="M981.517,630.968l-34.535,84.568-.7-.988,34.535-84.568Z" transform="translate(-933.5 -629.161)" fill="#d68612"/>
          <path id="Path_28713" data-name="Path 28713" d="M978.082,633.118l-34.535,84.568-.7-.988,34.535-84.568Z" transform="translate(-931.902 -630.161)" fill="#d68612"/>
          <path id="Path_28714" data-name="Path 28714" d="M976.821,629.438l-34.535,84.568-.7-.988L976.12,628.45Z" transform="translate(-931.315 -628.45)" fill="#d68612"/>
          <path id="Path_28715" data-name="Path 28715" d="M985.939,639.864,951.4,724.432l-.7-.988,34.535-84.568Z" transform="translate(-935.556 -633.299)" fill="#d68612"/>
          <path id="Path_28716" data-name="Path 28716" d="M990.222,636.5l-34.535,84.568-.7-.988,34.535-84.568Z" transform="translate(-937.549 -631.732)" fill="#d68612"/>
          <path id="Path_28717" data-name="Path 28717" d="M967.209,688.042q-13.347,26.211-26.546,53.863a8.974,8.974,0,0,1-12.721,3.812c-5.139-3.1-7.556-7.511-3.555-15.021A505.459,505.459,0,0,0,954.569,669.2C953.977,681.229,958.395,687.264,967.209,688.042Z" transform="translate(-922.386 -647.403)" fill="#f7d548"/>
        </g>
      </g>
      <g id="Group_9162" data-name="Group 9162" transform="translate(97.114 296.047)">
        <g id="Group_9161" data-name="Group 9161" transform="translate(0 3.596)">
          <path id="Path_28718" data-name="Path 28718" d="M849.5,739.776c5.965,2.568,10.8,2.582,15.1.343,2.984-1.557,6.5-4.562,4.49-7.489-2.151-3.133-3.771-2.972-5.541-1.662-.2.147-.4.292-.606.425-.085.055-.667.359-.19.132.527-.25-.244.1-.352.144q-.274.112-.557.209a9.929,9.929,0,0,1-1.461.372c-.2.035-.4.065-.61.089-.134.016-1.221-.016-1.443-.037-.5-.049-3.7-.954-3.908-1.047-.5-.224-1-.473-1.5-.745-.222-.121-3.083-2.122-3.573-2.532q-.408-.342-.812-.7c-.108-.1-.216-.192-.323-.29-.338-.31-.649-.654-1.045-1.075-.981-1.046-1.919-2.165-2.825-3.34a6.513,6.513,0,0,0-3.648-2.281,2.446,2.446,0,0,0-2.66,1.368c-.821,1.922-1.788,3.139-.377,6.554a15.2,15.2,0,0,0,3.693,5.323C843.622,735.645,846.069,738.3,849.5,739.776Z" transform="translate(-836.946 -720.26)" fill="#e3967f"/>
        </g>
        <path id="Path_28719" data-name="Path 28719" d="M892.959,738.19s-.391-4.37,1.082-4.7c1.253-.277.575,1.1,2.62,2.29,2.157,1.259-1.468,4.385-2.783,3.981Z" transform="translate(-862.976 -722.803)" fill="#e3967f"/>
        <path id="Path_28720" data-name="Path 28720" d="M841.1,719.233s2.045-3.743.643-5.235c-1.192-1.271-1.006.553-3.57.008-2.7-.574-.128,5.26,1.385,5.948Z" transform="translate(-836.968 -713.538)" fill="#e3967f"/>
      </g>
      <g id="Group_9170" data-name="Group 9170" transform="translate(154.716 292.162)">
        <g id="Group_9169" data-name="Group 9169" transform="translate(0 0)">
          <g id="Group_9163" data-name="Group 9163">
            <path id="Path_28721" data-name="Path 28721" d="M944.636,772.471l36.741-23.281,2.456-42.914-36.741,23.281Zm33.338-25.23L948.526,765.9l1.968-34.4,29.448-18.66Z" transform="translate(-944.636 -706.275)" fill="#dbefff"/>
          </g>
          <g id="Group_9164" data-name="Group 9164" transform="translate(2.941 14.301)">
            <path id="Path_28722" data-name="Path 28722" d="M951.446,757.381l33.323-22.424-1.312-1.946-33.323,22.424Z" transform="translate(-950.133 -733.011)" fill="#dbefff"/>
          </g>
          <g id="Group_9165" data-name="Group 9165" transform="translate(2.156 28.029)">
            <path id="Path_28723" data-name="Path 28723" d="M949.979,783.046,983.3,760.622l-1.312-1.946L948.666,781.1Z" transform="translate(-948.666 -758.676)" fill="#dbefff"/>
          </g>
          <g id="Group_9166" data-name="Group 9166" transform="translate(27.286 9.998)">
            <path id="Path_28724" data-name="Path 28724" d="M997.858,762.1l1.291-36.86-2.21-.272-1.291,36.86Z" transform="translate(-995.648 -724.966)" fill="#dbefff"/>
          </g>
          <g id="Group_9167" data-name="Group 9167" transform="translate(17.886 15.016)">
            <path id="Path_28725" data-name="Path 28725" d="M980.285,771.48l1.291-36.86-2.21-.272-1.291,36.86Z" transform="translate(-978.074 -734.348)" fill="#dbefff"/>
          </g>
          <g id="Group_9168" data-name="Group 9168" transform="translate(8.892 19.883)">
            <path id="Path_28726" data-name="Path 28726" d="M963.47,782.329l1.361-38.881L962.55,745.2l-1.291,36.86Z" transform="translate(-961.26 -743.447)" fill="#dbefff"/>
          </g>
        </g>
      </g>
      <g id="Group_9174" data-name="Group 9174" transform="translate(126.115 311.9)">
        <path id="Path_28727" data-name="Path 28727" d="M910.052,746.911l-4.587-1.85q-.368-.148-.723-.327a5.067,5.067,0,0,0-.673-.282h0l-.06-.018a4.774,4.774,0,0,0-.548-.141c-3.748-.806-8.367-.374-10.848,3.8-2.3,3.865-1.175,8.718-1.175,8.718a19.033,19.033,0,0,0,4.514,8.232s1.343,1.7,2.9,1.451c2.117-.339,2.994,1.155,4.866,1.262,5.183.295,7.459-3.672,8.944-6.6C913.261,759.98,917.65,749.79,910.052,746.911Z" transform="translate(-891.165 -743.541)" fill="#ff5c97"/>
        <g id="Group_9171" data-name="Group 9171" transform="translate(9.823 3.738)">
          <path id="Path_28728" data-name="Path 28728" d="M912.369,751.8a2.6,2.6,0,0,1-2.349,0,.716.716,0,0,1-.008-1.356,2.6,2.6,0,0,1,2.349,0A.716.716,0,0,1,912.369,751.8Z" transform="translate(-909.529 -750.165)" fill="#ba436e"/>
        </g>
        <g id="Group_9173" data-name="Group 9173" transform="translate(10.93)">
          <g id="Group_9172" data-name="Group 9172">
            <path id="Path_28729" data-name="Path 28729" d="M912.154,748.153a.529.529,0,0,1-.524-.459c-.017-.126-.388-3.1,1.918-4.446a.529.529,0,1,1,.533.915c-1.7.99-1.4,3.367-1.4,3.391a.53.53,0,0,1-.525.6Z" transform="translate(-911.598 -743.176)" fill="#22366e"/>
          </g>
        </g>
        <path id="Path_28730" data-name="Path 28730" d="M898.6,754.329a.527.527,0,1,1-.527-.527A.527.527,0,0,1,898.6,754.329Z" transform="translate(-894.131 -748.118)" fill="#ff87b3"/>
        <circle id="Ellipse_1138" data-name="Ellipse 1138" cx="0.527" cy="0.527" r="0.527" transform="translate(5.841 6.73)" fill="#ff87b3"/>
        <circle id="Ellipse_1139" data-name="Ellipse 1139" cx="0.527" cy="0.527" r="0.527" transform="translate(3.938 8.196)" fill="#ff87b3"/>
        <circle id="Ellipse_1140" data-name="Ellipse 1140" cx="0.527" cy="0.527" r="0.527" transform="translate(2.012 9.147)" fill="#ff87b3"/>
        <circle id="Ellipse_1141" data-name="Ellipse 1141" cx="0.527" cy="0.527" r="0.527" transform="translate(4.443 10.194)" fill="#ff87b3"/>
        <path id="Path_28731" data-name="Path 28731" d="M912.923,772.893a9.7,9.7,0,0,0,9.447-6.618c2.089-5.426-.539-8.546-.539-8.546a23.9,23.9,0,0,1-2.206,8.546A17.594,17.594,0,0,1,912.923,772.893Z" transform="translate(-901.285 -749.945)" fill="#ba436e"/>
      </g>
      <g id="Group_9196" data-name="Group 9196" transform="translate(61.119 236.168)">
        <g id="Group_9177" data-name="Group 9177">
          <g id="Group_9176" data-name="Group 9176">
            <g id="Group_9175" data-name="Group 9175">
              <path id="Path_28732" data-name="Path 28732" d="M778.5,675.16l-8.843-73.568,96.053,79.275-2.456,42.914Zm-2.784-63.371,7.125,61.1,76.425,43.845,2.148-34.1Z" transform="translate(-769.653 -601.592)" fill="#f8fcff"/>
            </g>
          </g>
        </g>
        <g id="Group_9179" data-name="Group 9179" transform="translate(15.633 16.019)">
          <g id="Group_9178" data-name="Group 9178">
            <path id="Path_28733" data-name="Path 28733" d="M804.9,696.082l2.282-.1-6.026-64.437-2.282.1Z" transform="translate(-798.879 -631.541)" fill="#f8fcff"/>
          </g>
        </g>
        <g id="Group_9181" data-name="Group 9181" transform="translate(29.379 26.635)">
          <g id="Group_9180" data-name="Group 9180">
            <path id="Path_28734" data-name="Path 28734" d="M827.7,710.647l2.292-.116-3.119-59.145-2.292.116Z" transform="translate(-824.578 -651.386)" fill="#f8fcff"/>
          </g>
        </g>
        <g id="Group_9183" data-name="Group 9183" transform="translate(42.926 39.174)">
          <g id="Group_9182" data-name="Group 9182">
            <path id="Path_28735" data-name="Path 28735" d="M850.84,727.145l2.291.042-.935-52.316-2.291-.042Z" transform="translate(-849.905 -674.829)" fill="#f8fcff"/>
          </g>
        </g>
        <g id="Group_9185" data-name="Group 9185" transform="translate(57.651 50.449)">
          <g id="Group_9184" data-name="Group 9184">
            <path id="Path_28736" data-name="Path 28736" d="M878.347,746.784l2.273.267-.913-50.875-2.273-.267Z" transform="translate(-877.434 -695.909)" fill="#f8fcff"/>
          </g>
        </g>
        <g id="Group_9187" data-name="Group 9187" transform="translate(71.701 61.729)">
          <g id="Group_9186" data-name="Group 9186">
            <path id="Path_28737" data-name="Path 28737" d="M903.788,763.633l2.291.107-.086-46.637L903.7,717Z" transform="translate(-903.701 -716.996)" fill="#f8fcff"/>
          </g>
        </g>
        <g id="Group_9189" data-name="Group 9189" transform="translate(83.605 72.92)">
          <g id="Group_9188" data-name="Group 9188">
            <path id="Path_28738" data-name="Path 28738" d="M928.254,781.37l.285-43.151-2.3-.3-.284,43.151Z" transform="translate(-925.956 -737.918)" fill="#f8fcff"/>
          </g>
        </g>
        <g id="Group_9191" data-name="Group 9191" transform="translate(4.026 24.751)">
          <g id="Group_9190" data-name="Group 9190">
            <path id="Path_28739" data-name="Path 28739" d="M866.458,713.205l1.173-1.806-89.387-63.534-1.064,1.884Z" transform="translate(-777.179 -647.865)" fill="#f8fcff"/>
          </g>
        </g>
        <g id="Group_9193" data-name="Group 9193" transform="translate(7.453 45.887)">
          <g id="Group_9192" data-name="Group 9192">
            <path id="Path_28740" data-name="Path 28740" d="M868.443,741.36l1.007-1.914L783.586,687.38l.268,3.123Z" transform="translate(-783.586 -687.38)" fill="#f8fcff"/>
          </g>
        </g>
        <g id="Group_9195" data-name="Group 9195" transform="translate(8.467 59.067)">
          <g id="Group_9194" data-name="Group 9194">
            <path id="Path_28741" data-name="Path 28741" d="M869.148,764.087l.983-1.928L785.483,712.02l.456,3.73Z" transform="translate(-785.483 -712.02)" fill="#f8fcff"/>
          </g>
        </g>
      </g>
      <g id="Group_9197" data-name="Group 9197" transform="translate(245.714 117.275)">
        <path id="Rectangle_5268" data-name="Rectangle 5268" d="M4.062,0h0A4.062,4.062,0,0,1,8.125,4.062V25.373a4.062,4.062,0,0,1-4.062,4.062h0A4.062,4.062,0,0,1,0,25.373V4.062A4.062,4.062,0,0,1,4.062,0Z" transform="translate(22.706 32.107) rotate(169.079)" fill="#22366e"/>
        <path id="Rectangle_5269" data-name="Rectangle 5269" d="M0,0H16.816a0,0,0,0,1,0,0V11.372a0,0,0,0,1,0,0H8.709A8.709,8.709,0,0,1,0,2.663V0A0,0,0,0,1,0,0Z" transform="translate(18.665 11.166) rotate(169.08)" fill="#23376f"/>
        <rect id="Rectangle_5270" data-name="Rectangle 5270" width="1.121" height="11.372" transform="matrix(-0.982, 0.189, -0.189, -0.982, 5.732, 13.662)" fill="#bed1f2"/>
      </g>
      <g id="Group_9199" data-name="Group 9199" transform="translate(252.287 128.263)">
        <g id="Group_9198" data-name="Group 9198" transform="translate(14.425 9.26)">
          <path id="Path_28742" data-name="Path 28742" d="M1183.929,437.3a91.973,91.973,0,0,1-15.917-6.8c-4-2.291-7.889-4.683-12.054-6.682-3.994-1.918-1.206-8.212,2.793-6.292,4.165,2,8.053,4.391,12.054,6.682a91.892,91.892,0,0,0,15.917,6.8c4.2,1.445,1.367,7.724-2.793,6.292Z" transform="translate(-1154.016 -417.172)" fill="#ffc2b0"/>
        </g>
        <path id="Path_28743" data-name="Path 28743" d="M1128.318,400a1.168,1.168,0,0,0-.07,1.106l.005.013c.488,1.106,2.488,1.919,5.945,2.416.116.044.528.277,1.094.608a6.083,6.083,0,0,0-3.417.764,16.308,16.308,0,0,0-4.764,4.028l-.064.1.029.113a.91.91,0,0,0,.614.588c.958.323,2.623-.437,4.948-2.257a3.061,3.061,0,0,1,2.553-.426,3.287,3.287,0,0,0-1.869.5,41.881,41.881,0,0,0-4.595,4.105l-.114.116.054.154a.868.868,0,0,0,.612.507,1.516,1.516,0,0,0,.548.039l-.076.056-.215.156.159.213c1.176,1.567,2.924.362,4.2-.518.165-.114.326-.225.481-.328a2.365,2.365,0,0,1,2.215-.377,15.032,15.032,0,0,1,3.65,2.42c.122.141,1.373,1.08,1.541,1.231,3.182,2.855,6.7-1.086,5.366-5.209-3.718-2.966-8.419-8.109-11.18-8.616l-.037-.022-7.514-1.622Z" transform="translate(-1127.048 -399.861)" fill="#ffc2b0"/>
      </g>
      <path id="Path_28744" data-name="Path 28744" d="M742.484,533.142a6.279,6.279,0,0,1-1.3,7.03c-.115.114-.182.181-.183.181-1.48.047,1.258-3.444-1.123-7-.111-.1-.586-.436-1.253-.886a7.451,7.451,0,0,1,.967,4.18c-.588,5.115-1.871,7.306-1.925,7.4l-.074.123-.141.027a1.114,1.114,0,0,1-.974-.366c-.864-.887-.908-3.129-.13-6.663a3.751,3.751,0,0,0-.882-3.046,4.032,4.032,0,0,1,.436,2.332,51.366,51.366,0,0,1-2.1,7.252l-.068.188-.2.022a1.064,1.064,0,0,1-.884-.409,1.861,1.861,0,0,1-.333-.584l-.021.113-.059.32-.319-.063c-2.355-.468-1.95-3.038-1.654-4.914.038-.242.075-.479.106-.7a2.9,2.9,0,0,0-.757-2.647,18.439,18.439,0,0,0-4.608-2.749c-.22-.06-1.921-.944-2.178-1.049-4.839-2-2.352-7.978,2.911-8.688,5.247,2.534,13.42,5,15.443,7.784l.044.029Z" transform="translate(-685.549 -328.655)" fill="#ffc2b0"/>
      <path id="Path_28745" data-name="Path 28745" d="M1190.75,400.813a3.049,3.049,0,0,0,3.793-1.864c2.288-6.266,7.119-21.6,8.673-31.575a6.383,6.383,0,0,1,6.706-5.388c3.6.225,6.785,4.823,5.26,11.855l-11.916,35.6a8.82,8.82,0,0,1-11.457,5.02l-29.5-11.619c-1.8-7.539,2.633-10.542,5.116-9.487Z" transform="translate(-890.966 -253.976)" fill="#d9eaff"/>
      <g id="Group_9200" data-name="Group 9200" transform="translate(150.631 115.615)">
        <path id="Path_28746" data-name="Path 28746" d="M996.893,422.958s.993-2.727,4.936-2.812l-.434-3.507s-3.17,1.916-10.141.619l-1.788-.053a14.248,14.248,0,0,0-5.56.554c-.587.2-1.095.377-1.349.488-16.068,7.009-21.653,9.84-25.52,9.057a16.245,16.245,0,0,0-5.823-.179h0a8.332,8.332,0,0,0-1.435.343c-2.462.806-2.643,1.7-2.643,1.7-.14.536.38,1.295,1.166,2.042h0c1.128,1.452,7.874,1.8,9.643,1.652,18.515-1.565,29.36-4.272,29.36-4.272C994.827,425.214,995.591,424.991,996.893,422.958Zm-8.334,2.09c.11-.055.223-.109.338-.163C988.76,424.955,988.644,425.011,988.559,425.048Z" transform="translate(-941.703 -395.015)" fill="#d9eaff"/>
        <path id="Path_28747" data-name="Path 28747" d="M980.148,378.288l-2.362-.684a14.077,14.077,0,0,1-3.052,8l-.822.357c-.494.441-2.9,4.048-3.471,4.652-11.981,12.662-20.776,12.711-24.857,12.189a10.426,10.426,0,0,0-5.66.659h0a5.012,5.012,0,0,0-1.207.722c-1.965,1.552-1.707,2.866-1.707,2.866.319,2.025,5.412,5.458,7.248,5.759,18.282,2.99,30.4-18.233,30.4-18.233,1.775-2.172,4.717-4.335,4.12-7.154C978.782,387.422,978.489,385.655,980.148,378.288Z" transform="translate(-936.998 -376.86)" fill="#f7d548"/>
        <path id="Path_28748" data-name="Path 28748" d="M982.083,379.242l-.979.121a51.8,51.8,0,0,1-1.3,9.3l-.324,1.06a19.478,19.478,0,0,1-3.174,5.612c-11.98,12.662-22.947,13.513-27.023,12.96-10.929-1.481-8.523,2.283-8.523,2.283a11.921,11.921,0,0,0,6.353,3.309c18.282,2.99,31.057-10.179,31.057-10.179,5.565-6.057,5.912-11.229,5.315-14.049C983.487,389.662,981.595,386.385,982.083,379.242Z" transform="translate(-938.644 -377.622)" fill="#f39c12"/>
        <path id="Path_28749" data-name="Path 28749" d="M938.4,429.891a.877.877,0,0,0-1.36.654.962.962,0,0,0,.572.867c1.332.8,1.829,1.649,2.246.94s-1.351-2.393-1.351-2.393Z" transform="translate(-937.017 -401.113)" fill="#22366e"/>
        <path id="Path_28750" data-name="Path 28750" d="M1006.952,386.265l3.743,2.186,3.235.462-1.034-9.745-.1.064a3.411,3.411,0,0,1-3.668-.068l-.579-.385S1008.571,385.751,1006.952,386.265Z" transform="translate(-969.534 -377.406)" fill="#f39c12"/>
        <path id="Path_28751" data-name="Path 28751" d="M1010.007,377.682l1.942,1.177a.911.911,0,0,0,.964-.011l1.367-.873a.168.168,0,0,0,.014-.272l-1.677-1.338a.692.692,0,0,0-.787-.054l-1.822,1.083A.168.168,0,0,0,1010.007,377.682Z" transform="translate(-970.918 -376.214)" fill="#22366e"/>
      </g>
      <g id="Group_9203" data-name="Group 9203" transform="translate(99.405 81.783)">
        <g id="Group_9202" data-name="Group 9202">
          <path id="Path_28752" data-name="Path 28752" d="M858.31,337.853a5.86,5.86,0,0,0-3.773-1.316l-3.258-.177c-.383-.023-.749-.041-1.094-.063l.428-2.02,4.648-2.691.155-.019c.1.037.2.075.3.115l.1-.162,7.269-.856-4.625-3.425h0a9.8,9.8,0,0,0-8.148-.48c-5.2,1.767-8.758,6.221-8.612,10.249a4.687,4.687,0,0,0,1.908,3.9l4.249,3.129,5.832-1.014a1.464,1.464,0,0,1,.261.847c.053,1.454-1.062,2.739-3.395,3.531a8.507,8.507,0,0,1-6.25-.445l-3.077,4.858h0l4.625,3.425,5.584-1.391,8.611-2.989,1.721-7.773.4-2.362-3.865-2.871Z" transform="translate(-841.229 -319.078)" fill="url(#linear-gradient)"/>
          <g id="Group_9201" data-name="Group 9201" transform="translate(4.625 10.457)">
            <path id="Path_28753" data-name="Path 28753" d="M849.876,358.218l3.077-4.857a8.506,8.506,0,0,0,6.249.445c2.333-.792,3.448-2.077,3.4-3.531-.055-1.529-1.488-1.533-3.7-1.688l-3.3-.239c-2.6-.136-5.122-1.394-5.25-4.937-.146-4.028,3.41-8.482,8.612-10.248a9.8,9.8,0,0,1,8.148.48l-2.743,4.443a6.979,6.979,0,0,0-5.233-.186c-1.95.662-3.145,1.9-3.095,3.278.054,1.492,1.718,1.455,3.89,1.586l3.259.177c3.065.167,5.048,1.495,5.172,4.925.146,4.028-3.17,8.7-9.137,10.728C855.969,359.7,852.484,359.673,849.876,358.218Z" transform="translate(-849.876 -332.513)" fill="#1d60dc"/>
          </g>
          <path id="Path_28754" data-name="Path 28754" d="M858.7,360.812h0a1.417,1.417,0,0,1-1.106-1.393l2.722-39.937a.976.976,0,0,1,1.259-.859h0a1.417,1.417,0,0,1,1.106,1.393l-2.722,39.937A.976.976,0,0,1,858.7,360.812Z" transform="translate(-848.84 -315.581)" fill="#1d60dc"/>
          <path id="Path_28755" data-name="Path 28755" d="M867.2,355.183h0a1.417,1.417,0,0,1-1.106-1.393l2.722-39.937a.976.976,0,0,1,1.259-.859h0a1.416,1.416,0,0,1,1.106,1.392l-2.721,39.937A.976.976,0,0,1,867.2,355.183Z" transform="translate(-852.793 -312.964)" fill="#1d60dc"/>
        </g>
        <path id="Path_28756" data-name="Path 28756" d="M844.306,365.084l4.625,3.425-3.077,4.858-4.625-3.425Z" transform="translate(-841.229 -337.205)" fill="#68aeed"/>
      </g>
      <path id="Path_28757" data-name="Path 28757" d="M835.493,430.238l8.558,1.147a2.068,2.068,0,0,0,2.318-1.771h0a2.068,2.068,0,0,0-1.77-2.317l-8.558-1.147a2.068,2.068,0,0,0-2.318,1.771h0A2.068,2.068,0,0,0,835.493,430.238Z" transform="translate(-738.324 -283.816)" fill="#ffc2b0"/>
      <path id="Path_28758" data-name="Path 28758" d="M699.435,443.872s-19.756-12.484-23.552-34.788c-1.631-9.587-.684-20.824-.526-29.678s3.231-25.542-11.646-27.161h0a20.81,20.81,0,0,0-3.022,8.143c-2.33,15.939-9.2,67.3,30.693,90.905Z" transform="translate(-656.946 -249.451)" fill="#639aff"/>
      <path id="Path_28759" data-name="Path 28759" d="M1160.833,520.284l-9.276-5.355c-1.99-1.149-4.083-.456-6.115.717l-1.266.731a12.266,12.266,0,0,0-1.827.882l-12.442,7.184c-.111.064-.214.13-.313.2a.588.588,0,0,0-.058.027c-6.387,4.43-8.573,5.919-12.423,8.393-.756.437-.814,1.186-.073,1.614l4.736,2.734.009.006,4.62,2.643a3,3,0,0,0,2.712-.066c4.286-2.224,7.063-3.37,14.737-7.058q.206-.1.4-.209l1.166-.673c.489-.233.993-.475,1.527-.732q.206-.1.4-.208l1.34-.774,11.1-6.41C1161.819,522.755,1162.823,521.433,1160.833,520.284Z" transform="translate(-869.862 -324.843)" fill="#b0cdf0" opacity="0.4"/>
      <g id="Group_9204" data-name="Group 9204" transform="translate(241.461 185.915)">
        <path id="Path_28760" data-name="Path 28760" d="M1111.534,542.711h-4.727v-3.186l4.727-1.54Z" transform="translate(-1106.808 -521.754)" fill="#7da5d4"/>
        <path id="Path_28761" data-name="Path 28761" d="M1181.789,522.881l-4.726.227v-4.727l4.726,1.6Z" transform="translate(-1139.484 -512.637)" fill="#7da5d4"/>
        <path id="Path_28762" data-name="Path 28762" d="M1132.643,514.4c2.031-1.173,4.125-1.865,6.114-.717l9.276,5.356c1.99,1.148.987,2.471-1.044,3.643l-11.1,6.41-1.34.774c-.128.074-.262.143-.4.208-7.674,3.688-10.451,4.835-14.737,7.058a3,3,0,0,1-2.711.066l-4.62-2.643-.01-.006-4.735-2.734c-.741-.428-.683-1.177.073-1.614,3.85-2.474,6.036-3.963,12.423-8.393a.575.575,0,0,1,.058-.027c.1-.067.2-.134.313-.2Z" transform="translate(-1106.808 -510.178)" fill="#7da5d4"/>
        <path id="Path_28763" data-name="Path 28763" d="M1132.643,508.947c2.031-1.173,4.125-1.866,6.114-.717l9.276,5.355c1.99,1.149.987,2.471-1.044,3.644l-11.1,6.41-1.34.774c-.128.074-.262.143-.4.208-7.674,3.688-10.451,4.835-14.737,7.058a3,3,0,0,1-2.711.065l-4.62-2.642-.01-.006-4.735-2.734c-.741-.428-.683-1.177.073-1.614,3.85-2.474,6.036-3.963,12.423-8.394a.588.588,0,0,1,.058-.027c.1-.068.2-.134.313-.2Z" transform="translate(-1106.808 -507.642)" fill="#a8c4e5"/>
        <path id="Path_28764" data-name="Path 28764" d="M1133.249,510.433c1.927-1.113,3.533-2.2,5.346-1.152l9.218,5.322c1.813,1.047,1.025,1.907-.9,3.019l-11.124,6.438-1.271.734q-.183.105-.378.2c-7.256,3.513-9.876,4.61-13.934,6.724a2.8,2.8,0,0,1-2.523.09l-4.211-2.408-.009,0-4.314-2.491c-.675-.39-.6-1.087.12-1.5,3.661-2.343,5.743-3.751,11.826-7.94a.553.553,0,0,1,.055-.026c.094-.064.193-.127.3-.187Z" transform="translate(-1107.679 -508.207)" fill="#3171bd"/>
        <path id="Path_28765" data-name="Path 28765" d="M1142.313,525.347l-10.667-6.159,16.084-9.286,10.667,6.159Z" transform="translate(-1118.36 -508.693)" fill="#22366e"/>
        <path id="Path_28766" data-name="Path 28766" d="M1143.034,525.273l-9.852-5.688,15.28-8.822,9.852,5.688Z" transform="translate(-1119.075 -509.094)" fill="#bedafa"/>
        <path id="Path_28767" data-name="Path 28767" d="M1133.182,519.585l15.28-8.822,9.852,5.688Z" transform="translate(-1119.075 -509.094)" fill="#e9f5ff"/>
        <path id="Path_28768" data-name="Path 28768" d="M1130.213,531.615l-1.625-.939c-.313-.181-.274-.5.088-.709h0a1.369,1.369,0,0,1,1.228-.051l1.626.938c.313.181.274.5-.088.709h0A1.369,1.369,0,0,1,1130.213,531.615Z" transform="translate(-1116.839 -517.945)" fill="#7da5d4"/>
        <path id="Path_28769" data-name="Path 28769" d="M1136.654,535.334l-1.625-.938c-.313-.181-.273-.5.088-.709h0a1.37,1.37,0,0,1,1.228-.051l1.625.938c.313.181.274.5-.088.709h0A1.368,1.368,0,0,1,1136.654,535.334Z" transform="translate(-1119.835 -519.675)" fill="#7da5d4"/>
        <path id="Path_28770" data-name="Path 28770" d="M1143.1,539.052l-1.625-.938c-.313-.181-.274-.5.088-.709h0a1.367,1.367,0,0,1,1.228-.051l1.626.938c.313.181.273.5-.088.709h0A1.368,1.368,0,0,1,1143.1,539.052Z" transform="translate(-1122.831 -521.405)" fill="#7da5d4"/>
        <path id="Path_28771" data-name="Path 28771" d="M1132.941,537.477l-1.626-.938c-.313-.181-.273-.5.088-.709h0a1.369,1.369,0,0,1,1.228-.051l1.625.938c.313.181.274.5-.088.709h0A1.369,1.369,0,0,1,1132.941,537.477Z" transform="translate(-1118.108 -520.672)" fill="#7da5d4"/>
        <path id="Path_28772" data-name="Path 28772" d="M1139.382,541.2l-1.625-.938c-.313-.181-.274-.5.088-.709h0a1.369,1.369,0,0,1,1.228-.051l1.625.939c.313.181.274.5-.088.709h0A1.368,1.368,0,0,1,1139.382,541.2Z" transform="translate(-1121.104 -522.402)" fill="#7da5d4"/>
        <path id="Path_28773" data-name="Path 28773" d="M1122.786,535.9l-1.625-.938c-.313-.181-.274-.5.088-.709h0a1.369,1.369,0,0,1,1.228-.051l1.626.939c.313.181.273.5-.088.709h0A1.37,1.37,0,0,1,1122.786,535.9Z" transform="translate(-1113.385 -519.94)" fill="#7da5d4"/>
        <path id="Path_28774" data-name="Path 28774" d="M1129.228,539.621l-1.625-.938c-.313-.181-.274-.5.088-.709h0a1.371,1.371,0,0,1,1.228-.051l1.625.939c.313.181.274.5-.088.709h0A1.371,1.371,0,0,1,1129.228,539.621Z" transform="translate(-1116.381 -521.669)" fill="#7da5d4"/>
        <path id="Path_28775" data-name="Path 28775" d="M1135.669,543.34l-1.625-.938c-.313-.181-.274-.5.088-.709h0a1.372,1.372,0,0,1,1.228-.051l1.625.939c.313.181.274.5-.088.709h0A1.372,1.372,0,0,1,1135.669,543.34Z" transform="translate(-1119.377 -523.399)" fill="#7da5d4"/>
        <path id="Path_28776" data-name="Path 28776" d="M1119.073,538.046l-1.625-.938c-.313-.181-.274-.5.088-.709h0a1.371,1.371,0,0,1,1.228-.051l1.626.939c.313.181.273.5-.088.709h0A1.372,1.372,0,0,1,1119.073,538.046Z" transform="translate(-1111.658 -520.937)" fill="#7da5d4"/>
        <path id="Path_28777" data-name="Path 28777" d="M1125.515,541.765l-1.625-.938c-.313-.181-.274-.5.088-.709h0a1.371,1.371,0,0,1,1.228-.051l1.626.938c.313.181.274.5-.088.709h0A1.37,1.37,0,0,1,1125.515,541.765Z" transform="translate(-1114.654 -522.666)" fill="#7da5d4"/>
        <path id="Path_28778" data-name="Path 28778" d="M1123.086,546.687l1.1-.637a1.256,1.256,0,0,1,1.077.017l2.362,1.173c.395.2.444.526.105.7l-1.349.687a1.275,1.275,0,0,1-1.1-.062l-2.117-1.222C1122.832,547.147,1122.8,546.855,1123.086,546.687Z" transform="translate(-1114.288 -525.453)" fill="#1d60dc"/>
        <path id="Path_28779" data-name="Path 28779" d="M1119.172,545.035l-1.388-.8c-.245-.142-.214-.392.069-.555l1.123-.649a1.074,1.074,0,0,1,.962-.04l1.388.8c.246.142.215.391-.069.555l-1.123.648A1.073,1.073,0,0,1,1119.172,545.035Z" transform="translate(-1111.836 -524.038)" fill="#f7d548"/>
        <path id="Path_28780" data-name="Path 28780" d="M1114.094,541.372l1.1-.637c.273-.158.26-.428-.03-.622l-2.03-1.364a1.24,1.24,0,0,0-1.21-.061l-1.19.779c-.261.171-.214.451.108.637l2.117,1.222A1.258,1.258,0,0,0,1114.094,541.372Z" transform="translate(-1108.557 -522.021)" fill="#ff5c97"/>
        <path id="Path_28781" data-name="Path 28781" d="M1126.5,533.758l-1.625-.938c-.313-.181-.274-.5.088-.709h0a1.367,1.367,0,0,1,1.228-.051l1.626.938c.313.181.274.5-.088.709h0A1.367,1.367,0,0,1,1126.5,533.758Z" transform="translate(-1115.112 -518.942)" fill="#7da5d4"/>
        <path id="Path_28782" data-name="Path 28782" d="M1131.956,545.484l-1.625-.939c-.313-.181-.273-.5.088-.709h0a1.372,1.372,0,0,1,1.228-.051l1.625.938c.314.181.274.5-.088.709h0A1.371,1.371,0,0,1,1131.956,545.484Z" transform="translate(-1117.65 -524.396)" fill="#7da5d4"/>
        <path id="Path_28783" data-name="Path 28783" d="M1131.273,531.131l-1.384-.8c-.1-.058-.088-.161.028-.228h0a.443.443,0,0,1,.4-.017l1.383.8c.1.058.088.161-.028.228h0A.442.442,0,0,1,1131.273,531.131Z" transform="translate(-1117.512 -518.063)" fill="#b8d0ff"/>
        <path id="Path_28784" data-name="Path 28784" d="M1137.615,534.792l-1.384-.8c-.1-.058-.088-.161.028-.228h0a.443.443,0,0,1,.4-.017l1.383.8c.1.058.088.162-.028.228h0A.442.442,0,0,1,1137.615,534.792Z" transform="translate(-1120.461 -519.766)" fill="#b8d0ff"/>
        <path id="Path_28785" data-name="Path 28785" d="M1144.013,538.486l-1.383-.8c-.1-.058-.088-.161.028-.229h0a.442.442,0,0,1,.4-.016l1.384.8c.1.058.088.161-.029.228h0A.442.442,0,0,1,1144.013,538.486Z" transform="translate(-1123.437 -521.484)" fill="#b8d0ff"/>
        <path id="Path_28786" data-name="Path 28786" d="M1127.553,533.278l-1.384-.8c-.1-.058-.088-.161.028-.228h0a.443.443,0,0,1,.4-.017l1.383.8c.1.058.088.161-.028.229h0A.442.442,0,0,1,1127.553,533.278Z" transform="translate(-1115.781 -519.062)" fill="#b8d0ff"/>
        <path id="Path_28787" data-name="Path 28787" d="M1133.9,536.94l-1.384-.8c-.1-.058-.088-.161.028-.229h0a.442.442,0,0,1,.4-.016l1.383.8c.1.058.088.161-.028.228h0A.442.442,0,0,1,1133.9,536.94Z" transform="translate(-1118.731 -520.765)" fill="#b8d0ff"/>
        <path id="Path_28788" data-name="Path 28788" d="M1140.293,540.634l-1.383-.8c-.1-.058-.088-.161.028-.229h0a.442.442,0,0,1,.4-.017l1.384.8c.1.058.088.161-.029.228h0A.441.441,0,0,1,1140.293,540.634Z" transform="translate(-1121.707 -522.483)" fill="#b8d0ff"/>
        <path id="Path_28789" data-name="Path 28789" d="M1123.833,535.426l-1.384-.8c-.1-.058-.088-.161.028-.228h0a.443.443,0,0,1,.4-.017l1.383.8c.1.058.088.161-.028.228h0A.441.441,0,0,1,1123.833,535.426Z" transform="translate(-1114.051 -520.061)" fill="#b8d0ff"/>
        <path id="Path_28790" data-name="Path 28790" d="M1130.175,539.088l-1.384-.8c-.1-.059-.088-.161.028-.229h0a.443.443,0,0,1,.4-.017l1.383.8c.1.058.088.161-.028.228h0A.442.442,0,0,1,1130.175,539.088Z" transform="translate(-1117.001 -521.764)" fill="#b8d0ff"/>
        <path id="Path_28791" data-name="Path 28791" d="M1136.573,542.782l-1.383-.8c-.1-.058-.088-.161.028-.228h0a.442.442,0,0,1,.4-.017l1.384.8c.1.058.088.162-.029.229h0A.442.442,0,0,1,1136.573,542.782Z" transform="translate(-1119.977 -523.482)" fill="#b8d0ff"/>
        <path id="Path_28792" data-name="Path 28792" d="M1120.113,537.574l-1.384-.8c-.1-.058-.088-.161.028-.229h0a.442.442,0,0,1,.4-.016l1.383.8c.1.058.088.161-.028.228h0A.442.442,0,0,1,1120.113,537.574Z" transform="translate(-1112.321 -521.06)" fill="#b8d0ff"/>
        <path id="Path_28793" data-name="Path 28793" d="M1115.278,540.194l-1.384-.8c-.1-.058-.088-.161.028-.228h0a.443.443,0,0,1,.4-.017l1.383.8c.1.059.088.161-.028.229h0A.442.442,0,0,1,1115.278,540.194Z" transform="translate(-1110.072 -522.278)" fill="#fff" opacity="0.47"/>
        <path id="Path_28794" data-name="Path 28794" d="M1121.685,544.35l-1.383-.8c-.1-.058-.088-.161.028-.228h0a.442.442,0,0,1,.4-.017l1.384.8c.1.058.088.161-.029.229h0A.44.44,0,0,1,1121.685,544.35Z" transform="translate(-1113.052 -524.212)" fill="#fff" opacity="0.47"/>
        <path id="Path_28795" data-name="Path 28795" d="M1127.163,547.244l-1.384-.8c-.1-.058-.088-.161.029-.229h0a.443.443,0,0,1,.4-.016l1.383.8c.1.058.088.161-.028.228h0A.442.442,0,0,1,1127.163,547.244Z" transform="translate(-1115.6 -525.558)" fill="#fff" opacity="0.47"/>
        <path id="Path_28796" data-name="Path 28796" d="M1126.455,541.235l-1.384-.8c-.1-.058-.088-.161.028-.228h0a.443.443,0,0,1,.4-.017l1.383.8c.1.058.088.161-.028.229h0A.44.44,0,0,1,1126.455,541.235Z" transform="translate(-1115.271 -522.763)" fill="#b8d0ff"/>
        <path id="Path_28797" data-name="Path 28797" d="M1132.853,544.929l-1.383-.8c-.1-.058-.088-.161.028-.228h0a.442.442,0,0,1,.4-.017l1.384.8c.1.058.088.161-.029.229h0A.442.442,0,0,1,1132.853,544.929Z" transform="translate(-1118.246 -524.481)" fill="#b8d0ff"/>
        <path id="Path_28798" data-name="Path 28798" d="M1115.729,549.681l-6.629-3.828a.961.961,0,0,1-.4-.764h0c0-.293.18-.43.4-.3l6.629,3.828a.961.961,0,0,1,.4.764h0C1116.129,549.672,1115.948,549.808,1115.729,549.681Z" transform="translate(-1107.687 -524.896)" fill="#22366e"/>
      </g>
      <g id="Group_9205" data-name="Group 9205" transform="translate(280.598 176.752)">
        <path id="Path_28799" data-name="Path 28799" d="M1187.5,501.322c1.807,1.017,2.268,2.532,1.369,3.8l4.128-.262c.576-1.8-.369-3.742-2.822-5.122a15.193,15.193,0,0,0-8.94-1.5l-.345,2.39A9.5,9.5,0,0,1,1187.5,501.322Z" transform="translate(-1180.399 -494.049)" fill="#ff5c97"/>
        <path id="Path_28800" data-name="Path 28800" d="M1182.37,490.545l-.326,2.258a19.812,19.812,0,0,1,10.9,2.073c3,1.689,4.29,4.007,3.874,6.235l3.9-.247a5.684,5.684,0,0,0,.014-.843c-.125-2.451-1.828-4.883-5.114-6.731A25.316,25.316,0,0,0,1182.37,490.545Z" transform="translate(-1180.938 -490.512)" fill="#ff5c97"/>
        <path id="Path_28801" data-name="Path 28801" d="M1179.992,507.41a.946.946,0,0,0,.02.1,1.091,1.091,0,0,0,.063.163,1.169,1.169,0,0,0,.078.143,1.392,1.392,0,0,0,.09.13,1.9,1.9,0,0,0,.161.17c.034.032.063.064.1.095a2.43,2.43,0,0,0,.355.244,3.375,3.375,0,0,0,.432.2c.053.021.111.037.167.056.1.032.2.063.3.088.075.019.151.034.227.049s.167.03.251.041.188.025.283.033c.057,0,.114.006.171.009a4.76,4.76,0,0,0,1.7-.219h0c.1-.033.195-.067.287-.108a2.6,2.6,0,0,0,.353-.171,2.3,2.3,0,0,0,.371-.27c.738-.665.586-1.562-.438-2.138a4.7,4.7,0,0,0-3.714-.2,3.092,3.092,0,0,0-.457.221,2.021,2.021,0,0,0-.287.208,1.943,1.943,0,0,0-.178.169h0a1.34,1.34,0,0,0-.247.374A1.018,1.018,0,0,0,1179.992,507.41Z" transform="translate(-1179.976 -497.499)" fill="#ff5c97"/>
      </g>
      <ellipse id="Ellipse_1142" data-name="Ellipse 1142" cx="11.603" cy="4.847" rx="11.603" ry="4.847" transform="translate(197.986 151.648)" fill="#d9eaff"/>
      <ellipse id="Ellipse_1143" data-name="Ellipse 1143" cx="11.603" cy="4.847" rx="11.603" ry="4.847" transform="translate(226.637 146.111)" fill="#d9eaff"/>
      <g id="Group_9209" data-name="Group 9209" transform="translate(193.347 136.397)">
        <path id="Path_28802" data-name="Path 28802" d="M1035.743,418.8l-4.588-1.85c-.245-.1-.487-.208-.723-.327a5.029,5.029,0,0,0-.673-.281h0l-.06-.018a4.555,4.555,0,0,0-.548-.141c-3.747-.807-8.367-.374-10.848,3.8-2.295,3.865-1.175,8.718-1.175,8.718a19.045,19.045,0,0,0,4.515,8.233s1.343,1.7,2.9,1.451c2.117-.34,2.994,1.155,4.866,1.261,5.183.3,7.458-3.672,8.944-6.6C1038.953,431.87,1043.342,421.681,1035.743,418.8Z" transform="translate(-1016.856 -415.431)" fill="#ff5c97"/>
        <g id="Group_9206" data-name="Group 9206" transform="translate(9.823 3.738)">
          <path id="Path_28803" data-name="Path 28803" d="M1038.061,423.694a2.6,2.6,0,0,1-2.35,0,.716.716,0,0,1-.007-1.357,2.6,2.6,0,0,1,2.349,0A.716.716,0,0,1,1038.061,423.694Z" transform="translate(-1035.221 -422.055)" fill="#ba436e"/>
        </g>
        <g id="Group_9208" data-name="Group 9208" transform="translate(10.93)">
          <g id="Group_9207" data-name="Group 9207">
            <path id="Path_28804" data-name="Path 28804" d="M1037.846,420.044a.529.529,0,0,1-.524-.459c-.017-.126-.388-3.105,1.918-4.447a.529.529,0,1,1,.532.915c-1.7.991-1.4,3.367-1.4,3.391a.529.529,0,0,1-.454.595A.54.54,0,0,1,1037.846,420.044Z" transform="translate(-1037.29 -415.067)" fill="#22366e"/>
          </g>
        </g>
        <path id="Path_28805" data-name="Path 28805" d="M1024.287,426.219a.527.527,0,1,1-.527-.527A.527.527,0,0,1,1024.287,426.219Z" transform="translate(-1019.822 -420.009)" fill="#ff87b3"/>
        <circle id="Ellipse_1144" data-name="Ellipse 1144" cx="0.527" cy="0.527" r="0.527" transform="translate(5.841 6.731)" fill="#ff87b3"/>
        <circle id="Ellipse_1145" data-name="Ellipse 1145" cx="0.527" cy="0.527" r="0.527" transform="translate(3.938 8.196)" fill="#ff87b3"/>
        <circle id="Ellipse_1146" data-name="Ellipse 1146" cx="0.527" cy="0.527" r="0.527" transform="translate(2.012 9.147)" fill="#ff87b3"/>
        <circle id="Ellipse_1147" data-name="Ellipse 1147" cx="0.527" cy="0.527" r="0.527" transform="translate(4.443 10.194)" fill="#ff87b3"/>
        <path id="Path_28806" data-name="Path 28806" d="M1038.615,444.784a9.706,9.706,0,0,0,9.447-6.618c2.089-5.426-.539-8.547-.539-8.547a23.909,23.909,0,0,1-2.207,8.547A17.6,17.6,0,0,1,1038.615,444.784Z" transform="translate(-1026.977 -421.836)" fill="#ba436e"/>
      </g>
      <g id="Group_9210" data-name="Group 9210" transform="translate(220.893 93.717)">
        <path id="Path_28807" data-name="Path 28807" d="M1088.343,356.9l-6.154-11.853h-7.111s-4.335,9.3-5.774,12.376a7.383,7.383,0,0,0-.454.969h0a7.425,7.425,0,0,0-.495,2.666V397.3c-.08,6.7,21.259,6.739,21.259,0V361.062A7.434,7.434,0,0,0,1088.343,356.9Z" transform="translate(-1068.354 -339.822)" fill="#a8c4e5"/>
        <path id="Path_28808" data-name="Path 28808" d="M1086.338,361.981c-1.9,5.6-13.519,4.569-13.962,0l-2.844,5.248v35.6c.088,7.65,19.963,6.893,19.963,0l-.474-35.8Z" transform="translate(-1068.902 -347.697)" fill="#d9eaff"/>
        <rect id="Rectangle_5271" data-name="Rectangle 5271" width="9.383" height="3.06" transform="translate(5.737 2.168)" fill="#1d60dc"/>
        <path id="Path_28809" data-name="Path 28809" d="M1089.614,406.171c0,5.423-21.259,5.423-21.259,0V384.162c3.481,5.658,18.388,4.755,21.259,0Z" transform="translate(-1068.355 -358.013)" fill="#4d8bff"/>
        <path id="Path_28810" data-name="Path 28810" d="M1088.464,343.227c0,.934-2.1,2.236-4.692,2.236s-4.691-1.3-4.691-2.236,2.1-1.691,4.691-1.691S1088.464,342.293,1088.464,343.227Z" transform="translate(-1073.344 -338.188)" fill="#1d60dc"/>
        <path id="Path_28811" data-name="Path 28811" d="M1088.464,337.444c0,1.2-2.1,2.168-4.692,2.168s-4.691-.97-4.691-2.168,2.1-2.168,4.691-2.168S1088.464,336.247,1088.464,337.444Z" transform="translate(-1073.344 -335.276)" fill="#4d8bff"/>
        <path id="Path_28812" data-name="Path 28812" d="M1088.729,360.112c0,1.877-3.1,3.4-6.933,3.4s-6.933-1.522-6.933-3.4,3.1-3.4,6.933-3.4S1088.729,358.234,1088.729,360.112Z" transform="translate(-1071.382 -345.246)" fill="#fff"/>
      </g>
    </g>
  </g>
</svg>
